<svg width="191" height="201" version="1.1" xmlns="http://www.w3.org/2000/svg" desc="Created with imagetracer.js version 1.2.6" ><path fill="rgb(0,0,0)" stroke="rgb(0,0,0)" stroke-width="1" opacity="0" d="M 0 0 L 191 0 L 191 201 L 106.5 201 L 104.5 200 L 100.5 201 L 100.5 200 L 105.5 199 L 115.5 193 L 124 190.5 L 122 189.5 L 131.5 184 Q 132.8 186.3 134 183.5 L 132 182.5 L 150 168 L 159 154.5 L 163 145 L 165 144.5 L 164 142.5 L 166 137.5 L 167 125.5 L 168 124.5 L 168 69.5 L 164.5 65 L 145.5 59 L 136 54.5 L 138 52.5 L 138 35.5 L 133 20 Q 130.3 21.1 131 18.5 Q 121.8 6.2 105.5 1 L 83.5 1 L 78.5 3 L 75.5 1 L 76.5 4 L 74.5 3 L 73 6 L 62 12 L 54 25 Q 51 24 52 27 L 54 27.5 L 51 28 L 50.5 34 L 49 33.5 L 50 39.5 L 50 41.5 Q 47.5 45 49 52.5 Q 51.3 53.7 48.5 55 L 47 55.5 L 49 56.5 L 22 67.5 L 21 71.5 L 21 92.5 L 20 93.5 L 21 94.5 L 21 108.5 L 21 110.5 L 20 114.5 L 21 117.5 L 22 124.5 L 21 127.5 L 23 129.5 Q 22.3 136.2 25 139.5 Q 22.5 141 26 142.5 L 25 144.5 L 27 145 L 26 148.5 L 27.5 151 L 29 150.5 L 28 153 Q 31.7 151.5 31 154.5 L 38 164.5 L 37.5 166 L 41 167 L 40 170.5 L 42.5 171 Q 44.8 170.3 44 172.5 L 64 187 L 64.5 189 L 66.5 189 L 78 195.5 L 78.5 197 Q 79.8 194.8 81 197.5 L 80 201 L 0 201 L 0 0 Z M 109 1 L 109 2 L 112 2 L 109 1 Z M 125 191 Q 123 194 126 193 L 125 191 Z " /><path fill="rgb(0,0,0)" stroke="rgb(0,0,0)" stroke-width="1" opacity="0" d="M 89.5 15 L 100.5 16 L 107 18.5 L 106 20.5 L 109.5 20 L 111 21.5 L 111.5 23 L 112.5 22 L 116 25.5 L 115 27.5 L 118 28.5 L 117.5 30 Q 119.8 29.3 119 31.5 L 121 37.5 L 120 39.5 Q 122.8 40.3 122 44.5 L 122 46.5 L 123 49.5 L 120.5 50 L 107 45.5 L 109 44.5 Q 107.2 40.3 105.5 43 L 104 43.5 L 106 44.5 L 104.5 45 L 97.5 42 L 91.5 42 L 78 47 L 77.5 45 L 76.5 48 L 65.5 52 L 66 50.5 L 67 34.5 L 73.5 24 L 76 24 Q 74.5 20.3 77.5 21 L 82.5 17 L 89.5 15 Z M 85 18 L 85 19 L 88 19 L 85 18 Z " /><path fill="rgb(0,0,0)" stroke="rgb(0,0,0)" stroke-width="1" opacity="0" d="M 92.5 57 L 96.5 57 L 102 59.5 L 100 60.5 L 102.5 61 L 104.5 60 L 104.5 61 Q 101.9 60.3 103 63 L 105.5 62 L 108 62.5 L 108.5 65 L 109.5 62 L 128 68.5 L 126 69.5 Q 126.8 67.3 124.5 68 L 122.5 67 L 120 68 L 119.5 70 L 109.5 70 L 107.5 70 Q 101.3 71.8 99.5 69 L 98.5 70 L 77.5 70 L 72.5 71 L 58 84.5 L 52.5 91 Q 50.3 90.3 51 92.5 L 45 97.5 L 45.5 99 Q 42.9 98.2 44 101.5 L 45 102.5 L 45 114.5 L 45 120.5 L 44 123.5 L 45 126.5 L 45 128.5 L 44 131.5 L 46 141.5 L 48 143.5 L 48 147.5 L 53 153.5 L 49 155 L 42 143.5 L 39 134.5 L 38 129.5 L 38 103.5 L 38.5 101 L 41 100.5 L 38 98.5 L 38 81.5 L 40.5 76 L 56.5 70 L 59 71.5 L 60.5 69 L 79.5 62 L 82.5 63 L 82.5 62 L 81 61.5 L 84.5 60 L 84.5 62 L 87 60.5 Q 86.3 58.3 88.5 59 L 92.5 57 Z M 98 59 L 98 61 Q 97 63 100 62 L 99 61 Q 100 58 98 59 Z " /><path fill="rgb(0,0,0)" stroke="rgb(0,0,0)" stroke-width="1" opacity="0" d="M 131.5 70 Q 138.5 70 141.5 74 L 143.5 74 L 149 75.5 L 143.5 76 Q 139.7 71.3 131.5 71 L 131.5 70 Z " /><path fill="rgb(0,0,0)" stroke="rgb(0,0,0)" stroke-width="1" opacity="0" d="M 146.5 77 L 147.5 79 L 151 78 L 151 112.5 L 152 113.5 L 152 117.5 L 151 124.5 L 152 126.5 L 150 131.5 L 150 133.5 L 148 142 L 146 142.5 L 146 144.5 L 144 150 L 141 151.5 L 140 155 L 136 156.5 L 137 158.5 L 134.5 159 L 130 158.5 L 135 158 L 135 155.5 Q 140.2 152.7 141 147 Q 143.7 148.1 143 145.5 L 145 136.5 L 145 79.5 L 146.5 77 Z " /><path fill="rgb(0,0,0)" stroke="rgb(0,0,0)" stroke-width="1" opacity="0" d="M 83 84 L 97.5 84 L 98.5 85 L 99.5 84 L 121.5 84 L 123.5 84 L 129 84.5 L 128 86.5 L 130 91.5 L 130 95.5 L 129 101.5 L 130 104.5 L 129 108.5 Q 131.5 110 130 115.5 L 130 117.5 L 129 127.5 L 130 131.5 L 130 133.5 L 130 152.5 L 128 153 L 128 154.5 L 130 154.5 Q 130.8 157.1 127.5 156 L 127.5 157 L 129 157.5 L 128 160.5 L 129.5 160 L 132.5 161 L 134.5 160 L 131.5 164 Q 128.2 165.1 129 162.5 L 128 162.5 L 129 167 L 123.5 171 L 118 172.5 L 120 173.5 L 104.5 183 L 103.5 181 L 103 184 L 100.5 183 L 100 185 L 94.5 184 L 92.5 185 Q 76.1 178.3 63 169 Q 64.1 166.3 61.5 167 L 53 159.5 L 53.5 158 L 56 158.5 L 56.5 161 L 57.5 158 L 59.5 161 L 61 160.5 L 59.5 158 L 62 157.5 L 60 157 L 61 145.5 Q 58.3 143.8 60 137.5 L 61 132.5 L 60 129.5 L 61 126.5 L 60 122.5 Q 64 120.5 60 118.5 L 61 116.5 L 60 113 L 62 112.5 L 61 109.5 L 62.5 110 Q 64.8 107.3 70.5 108 L 74.5 109 L 80 107 L 81 97.5 Q 78.3 95.8 80 89.5 L 81 86 Q 84 87 83 84 Z M 85 85 L 85 86 L 87 86 L 85 85 Z M 75 113 L 74 116 L 75 116 L 75 113 Z M 87 113 L 83 115 L 88 115 Q 89 112 87 113 Z M 104 113 L 101 115 L 104 115 L 104 113 Z M 113 113 Q 111 116 114 115 L 113 113 Z M 73 114 L 72 117 L 73 117 L 73 114 Z M 78 114 L 78 115 L 80 115 L 78 114 Z M 109 114 L 109 115 L 111 115 L 109 114 Z M 118 114 L 114 116 L 76 116 L 74 117 L 71 121 L 73 133 Q 75 132 73 131 L 74 129 L 76 132 L 77 130 L 76 129 L 76 128 L 79 129 Q 81 130 80 127 L 95 127 L 95 129 L 98 129 L 98 127 Q 102 126 104 128 L 106 127 Q 110 126 112 128 L 119 122 L 117 121 L 119 120 L 116 119 L 119 118 L 120 119 Q 121 116 118 117 L 118 114 Z M 84 128 L 84 129 L 89 129 L 84 128 Z M 106 128 Q 105 130 109 129 L 110 131 L 111 129 L 106 128 Z M 78 132 L 74 134 L 71 138 L 72 141 L 77 144 L 79 144 Q 83 143 85 145 L 88 144 Q 92 143 94 145 L 104 143 L 105 140 L 108 138 L 107 137 L 105 135 L 102 132 L 78 132 Z M 116 170 L 117 172 L 120 171 L 116 170 Z M 107 179 L 105 181 L 107 181 L 107 179 Z " /><path fill="rgb(0,0,0)" stroke="rgb(0,0,0)" stroke-width="1" opacity="0" d="M 82.5 197 L 83 200 L 85 200.5 L 81 201 L 82.5 197 Z " /><path fill="rgb(0,0,0)" stroke="rgb(0,0,0)" stroke-width="1" opacity="0" d="M 88.5 199 L 91 200.5 L 88 201 L 88.5 199 Z " /><path fill="rgb(251,252,252)" stroke="rgb(251,252,252)" stroke-width="1" opacity="0.9882352941176471" d="M 87.5 3 Q 109.7 1.3 120 11.5 Q 118.9 14.8 121.5 14 L 123 17 Q 126.8 16.3 128 19.5 L 130 22.5 L 129 25 L 132 26.5 Q 136.9 35.3 135 50 L 132.5 51 L 126 47.5 L 127 45.5 L 125 44.5 L 125 42.5 Q 123.7 37.8 126 36.5 L 123 31.5 L 121 26.5 L 111.5 17 L 98.5 13 L 87.5 13 L 78.5 17 L 75 17 Q 76.3 20 72.5 19 Q 74.4 21.8 69 24.5 L 63 38.5 L 63 51 Q 56.9 50.2 54.5 54 Q 51.3 52.3 55 50.5 L 53 48.5 Q 52 27 62.5 17 Q 64.8 17.8 64 15.5 Q 67.6 9.4 76 9 Q 74.9 6.3 77.5 7 L 87.5 3 Z " /><path fill="rgb(251,252,252)" stroke="rgb(251,252,252)" stroke-width="1" opacity="0.9882352941176471" d="M 91.5 45 L 97.5 45 L 122 53.5 L 121.5 55 L 130.5 57 L 132.5 56 L 140.5 60 L 160.5 66 L 165 69.5 L 165 126.5 Q 162.8 127.7 164 132.5 Q 159.6 154.6 145.5 167 Q 143.3 166.3 144 168.5 Q 133 181.5 117.5 190 L 98.5 199 L 93.5 199 Q 75.5 193 62 182.5 Q 62.8 179.9 59.5 181 L 58 178 L 55.5 178 L 47 170.5 L 47.5 169 L 39 161.5 L 36 154 Q 33.3 155.1 34 152.5 L 31 147.5 L 26 132.5 Q 27.8 126.2 25 124.5 L 25 69.5 L 37.5 64 L 39.5 65 L 39.5 63 L 46.5 61 L 48 61.5 Q 47.2 58.9 50.5 60 L 60.5 56 L 63 57 Q 61.8 54 65.5 55 L 91.5 45 Z M 92 55 L 67 65 L 64 65 L 38 74 L 35 77 L 35 130 L 39 144 L 48 159 L 48 161 L 52 161 L 56 167 L 56 169 L 61 169 L 76 180 L 95 189 Q 103 188 109 184 L 111 184 L 111 183 L 120 177 L 123 177 L 123 175 Q 126 176 125 174 L 139 161 L 141 161 L 140 160 Q 151 149 155 132 L 155 78 L 156 77 Q 148 70 135 68 L 135 66 L 133 67 L 131 67 L 133 66 L 133 65 L 130 66 L 99 55 L 92 55 Z " /><path fill="rgb(251,252,252)" stroke="rgb(251,252,252)" stroke-width="1" opacity="0.9882352941176471" d="M 76.5 73 L 81.5 74 L 83.5 74 L 87.5 73 L 130.5 73 L 138 76.5 L 137.5 78 Q 141.9 76.5 141 79.5 L 142 80.5 L 142 136.5 L 140 145 L 138 145.5 L 138.5 147 Q 137.3 144.8 136 147.5 L 137 149.5 L 133.5 154 L 133 81 L 129.5 82 L 128.5 81 L 100.5 81 L 98.5 81 Q 92.3 83.8 81.5 82 L 79.5 81 L 78 82.5 L 78 104.5 L 76.5 106 L 60.5 106 L 59.5 105 L 57 106 L 56 111.5 L 57 112.5 L 57 128.5 L 57 132.5 L 56 136.5 L 57 137.5 L 57 151.5 L 54 149.5 L 49 136.5 L 49 100.5 L 51.5 97 Q 53.8 97.8 53 95.5 L 58 89 Q 61.7 90.5 61 87.5 L 69 80.5 L 68 79.5 L 72.5 75 L 76.5 73 Z M 67 89 L 67 91 L 60 98 L 62 99 Q 68 101 70 98 Q 71 90 69 91 L 69 90 L 67 89 Z " /><path fill="rgb(251,252,252)" stroke="rgb(251,252,252)" stroke-width="1" opacity="0.9882352941176471" d="M 79.5 118 L 99.5 118 L 103 120 L 103.5 118 L 111 118 Q 109.5 121.8 112.5 121 L 114 120.5 L 113 123.5 L 112.5 125 L 76 125 L 75 121.5 L 76.5 119 L 77 121 L 80 119.5 L 79.5 118 Z " /><path fill="rgb(251,252,252)" stroke="rgb(251,252,252)" stroke-width="1" opacity="0.9882352941176471" d="M 79.5 135 L 101 135.5 L 99 136.5 L 103 137 L 102 139.5 L 102.5 141 L 100.5 142 L 77.5 142 L 75 137.5 L 77.5 137 L 80 136.5 L 79.5 135 Z " /><path fill="rgb(119,120,120)" stroke="rgb(119,120,120)" stroke-width="1" opacity="0.5764705882352941" d="M 86.5 1 L 90 1.5 L 81.5 4 L 82.5 2 L 86.5 1 Z " /><path fill="rgb(119,120,120)" stroke="rgb(119,120,120)" stroke-width="1" opacity="0.5764705882352941" d="M 97.5 1 L 107.5 2 L 109 1.5 L 108.5 3 L 116 5 L 116 7 L 119 7 L 119 9 Q 122.8 7.5 122 10.5 L 131 18.5 Q 128.8 19.7 131.5 21 L 133 20.5 L 132 23 L 134 23.5 L 133.5 25 L 135 25.5 L 133.5 26 Q 128.8 16.2 120.5 10 L 109.5 4 L 97.5 2 L 97.5 1 Z " /><path fill="rgb(119,120,120)" stroke="rgb(119,120,120)" stroke-width="1" opacity="0.5764705882352941" d="M 77.5 3 L 80 3.5 Q 80.8 6.1 77.5 5 L 66.5 12 L 66 10.5 L 75.5 4 L 77 4.5 L 77.5 3 Z " /><path fill="rgb(119,120,120)" stroke="rgb(119,120,120)" stroke-width="1" opacity="0.5764705882352941" d="M 63 12 L 65 12.5 L 63 16 Q 60.3 14.9 61 17.5 L 56 23.5 Q 52.3 30.8 51.5 41 Q 48.8 39.8 51 38.5 L 52 31.5 L 51.5 30 Q 53.8 30.8 53 28.5 L 56 21.5 L 63 12 Z " /><path fill="rgb(119,120,120)" stroke="rgb(119,120,120)" stroke-width="1" opacity="0.5764705882352941" d="M 87.5 14 L 104.5 15 L 116 22.5 L 123 34.5 L 124 49 L 128 50.5 L 126.5 51 L 123 48.5 L 122 34.5 Q 118.8 25.2 111.5 20 L 99.5 15 L 89.5 15 L 86.5 16 L 76 20 L 76 22 Q 73.3 20.9 74 23.5 L 70.5 26 L 76.5 19 L 87.5 14 Z " /><path fill="rgb(119,120,120)" stroke="rgb(119,120,120)" stroke-width="1" opacity="0.5764705882352941" d="M 69.5 27 L 72 28.5 L 70.5 28 L 69.5 27 Z " /><path fill="rgb(119,120,120)" stroke="rgb(119,120,120)" stroke-width="1" opacity="0.5764705882352941" d="M 67.5 30 Q 70.3 31.3 68 32.5 Q 68.8 34.8 66.5 34 L 67 32.5 L 67.5 30 Z " /><path fill="rgb(119,120,120)" stroke="rgb(119,120,120)" stroke-width="1" opacity="0.5764705882352941" d="M 135 31 L 137 31.5 L 135 32.5 L 135 31 Z " /><path fill="rgb(119,120,120)" stroke="rgb(119,120,120)" stroke-width="1" opacity="0.5764705882352941" d="M 136 35 L 138 35.5 L 137 38.5 L 136.5 40 L 136 35 Z " /><path fill="rgb(119,120,120)" stroke="rgb(119,120,120)" stroke-width="1" opacity="0.5764705882352941" d="M 65 36 Q 67.7 34.9 67 37.5 L 65 38.5 L 65 36 Z " /><path fill="rgb(119,120,120)" stroke="rgb(119,120,120)" stroke-width="1" opacity="0.5764705882352941" d="M 87.5 42 Q 89 45.5 90.5 43 L 95.5 42 L 118.5 50 L 120.5 50 L 123 50 Q 121.8 53 125.5 52 L 128 53.5 L 126.5 54 L 98.5 44 L 90.5 44 L 64.5 54 L 65 48.5 L 65.5 46 L 66 48.5 L 65.5 52 L 78.5 48 L 80.5 46 L 82.5 46 L 88 43.5 L 87.5 42 Z " /><path fill="rgb(119,120,120)" stroke="rgb(119,120,120)" stroke-width="1" opacity="0.5764705882352941" d="M 49.5 43 L 51 43.5 L 51 50.5 L 49 51.5 Q 51.5 50 50 44.5 L 49.5 43 Z " /><path fill="rgb(119,120,120)" stroke="rgb(119,120,120)" stroke-width="1" opacity="0.5764705882352941" d="M 137.5 52 L 136.5 54 L 137.5 52 Z " /><path fill="rgb(119,120,120)" stroke="rgb(119,120,120)" stroke-width="1" opacity="0.5764705882352941" d="M 61.5 53 L 63 53.5 L 59.5 56 L 46.5 60 L 47 58.5 L 47.5 57 L 49.5 58 L 61.5 53 Z " /><path fill="rgb(119,120,120)" stroke="rgb(119,120,120)" stroke-width="1" opacity="0.5764705882352941" d="M 129.5 53 L 142.5 57 L 147.5 60 L 159.5 63 L 161.5 65 L 163.5 65 Q 165.8 64.3 165 66.5 L 165.5 68 L 155.5 63 L 130.5 55 L 129.5 53 Z " /><path fill="rgb(119,120,120)" stroke="rgb(119,120,120)" stroke-width="1" opacity="0.5764705882352941" d="M 93.5 55 L 140.5 70 L 143.5 72 L 146.5 72 L 153 75 L 152.5 77 L 150.5 75 L 131 69 L 132 71.5 L 130 70.5 L 131 68.5 L 94.5 56 L 85 59.5 L 86 61.5 L 85 61.5 L 84.5 60 L 81 61 L 80.5 63 L 77.5 62 L 72.5 65 L 69 64.5 L 93.5 55 Z " /><path fill="rgb(119,120,120)" stroke="rgb(119,120,120)" stroke-width="1" opacity="0.5764705882352941" d="M 44.5 59 L 43.5 61 L 41.5 62 L 41 60 L 44.5 59 Z " /><path fill="rgb(119,120,120)" stroke="rgb(119,120,120)" stroke-width="1" opacity="0.5764705882352941" d="M 39.5 60 L 40 61.5 L 24 68 L 23 72.5 L 23 74.5 L 23 94.5 L 24 95.5 L 23 96.5 L 22.5 112 L 22 72.5 L 23 69.5 Q 21.9 66.2 24.5 67 L 37.5 62 L 39.5 60 Z " /><path fill="rgb(119,120,120)" stroke="rgb(119,120,120)" stroke-width="1" opacity="0.5764705882352941" d="M 65.5 65 L 68 65.5 L 66.5 67 L 51.5 71 L 49.5 73 Q 48 70.5 46.5 74 L 38 76 L 37.5 99 L 37 76.5 L 42.5 73 L 45.5 73 L 65.5 65 Z " /><path fill="rgb(119,120,120)" stroke="rgb(119,120,120)" stroke-width="1" opacity="0.5764705882352941" d="M 166.5 69 L 168 71.5 L 168 73.5 L 168 123.5 L 166.5 125 L 166.5 69 Z " /><path fill="rgb(119,120,120)" stroke="rgb(119,120,120)" stroke-width="1" opacity="0.5764705882352941" d="M 77.5 70 L 78.5 71 L 128 71.5 L 75.5 72 L 67 78.5 L 47 100.5 L 47 136.5 L 52 148.5 L 50 147.5 L 49.5 146 L 48.5 148 L 48 146.5 L 49 143.5 L 46 136.5 L 46 100.5 L 52 92.5 L 51.5 91 L 52.5 92 L 61.5 83 L 64 81.5 L 71.5 73 L 77.5 70 Z " /><path fill="rgb(119,120,120)" stroke="rgb(119,120,120)" stroke-width="1" opacity="0.5764705882352941" d="M 133.5 71 L 136.5 73 L 138 72.5 L 139.5 75 L 141 74.5 Q 140.2 77.5 144 76 L 144 80.5 L 145 81.5 L 145 135.5 L 143.5 138 L 143 79.5 L 140.5 76 L 133 73 L 133.5 71 Z " /><path fill="rgb(119,120,120)" stroke="rgb(119,120,120)" stroke-width="1" opacity="0.5764705882352941" d="M 153.5 78 L 154 84.5 L 153 84.5 L 153.5 78 Z " /><path fill="rgb(119,120,120)" stroke="rgb(119,120,120)" stroke-width="1" opacity="0.5764705882352941" d="M 80.5 82 L 129.5 82 L 131 83.5 L 130.5 85 L 130 83 L 81 83.5 L 81.5 85 L 80 84.5 L 81 88.5 L 79 89 Q 77.5 83.6 80.5 82 Z " /><path fill="rgb(119,120,120)" stroke="rgb(119,120,120)" stroke-width="1" opacity="0.5764705882352941" d="M 128.5 86 L 132 88.5 L 131.5 92 L 131 89 L 129 88.5 L 129.5 87 L 128.5 86 Z " /><path fill="rgb(119,120,120)" stroke="rgb(119,120,120)" stroke-width="1" opacity="0.5764705882352941" d="M 153.5 87 L 154 99.5 L 153 99.5 L 153.5 87 Z " /><path fill="rgb(119,120,120)" stroke="rgb(119,120,120)" stroke-width="1" opacity="0.5764705882352941" d="M 62.5 97 L 68 97.5 L 62.5 98 L 62.5 97 Z " /><path fill="rgb(119,120,120)" stroke="rgb(119,120,120)" stroke-width="1" opacity="0.5764705882352941" d="M 79.5 97 L 81 100.5 L 79 101.5 L 79.5 97 Z " /><path fill="rgb(119,120,120)" stroke="rgb(119,120,120)" stroke-width="1" opacity="0.5764705882352941" d="M 151.5 101 L 152 103.5 L 151 103.5 L 151.5 101 Z " /><path fill="rgb(119,120,120)" stroke="rgb(119,120,120)" stroke-width="1" opacity="0.5764705882352941" d="M 153.5 102 L 154 108.5 L 153 108.5 L 153.5 102 Z " /><path fill="rgb(119,120,120)" stroke="rgb(119,120,120)" stroke-width="1" opacity="0.5764705882352941" d="M 37.5 103 L 38 115.5 L 37 115.5 L 37.5 103 Z " /><path fill="rgb(119,120,120)" stroke="rgb(119,120,120)" stroke-width="1" opacity="0.5764705882352941" d="M 129.5 103 L 132 104.5 L 130.5 104 L 129.5 103 Z " /><path fill="rgb(119,120,120)" stroke="rgb(119,120,120)" stroke-width="1" opacity="0.5764705882352941" d="M 78.5 105 L 79.5 107 L 77.5 108 L 60 108 L 60 131.5 L 61 135.5 L 60 136.5 L 60 146.5 L 61 148.5 L 60 151.5 Q 61.5 157.5 58.5 159 L 59 157.5 Q 59.8 155.3 57.5 156 L 52.5 150 L 59 155 L 59 148.5 L 60 147.5 L 59 146.5 L 59 107 L 76.5 107 L 78.5 105 Z " /><path fill="rgb(119,120,120)" stroke="rgb(119,120,120)" stroke-width="1" opacity="0.5764705882352941" d="M 151.5 107 L 152 109.5 L 151 109.5 L 151.5 107 Z " /><path fill="rgb(119,120,120)" stroke="rgb(119,120,120)" stroke-width="1" opacity="0.5764705882352941" d="M 153.5 110 L 154 119.5 L 153 119.5 L 153.5 110 Z " /><path fill="rgb(119,120,120)" stroke="rgb(119,120,120)" stroke-width="1" opacity="0.5764705882352941" d="M 131.5 112 L 130.5 114 L 131.5 112 Z " /><path fill="rgb(119,120,120)" stroke="rgb(119,120,120)" stroke-width="1" opacity="0.5764705882352941" d="M 22 113 L 24 113.5 L 23 116.5 L 24 117.5 L 25 134.5 L 29 146.5 Q 37.1 165.4 52.5 177 L 69.5 189 L 85.5 197 L 94.5 200 L 98.5 200 Q 129.1 188.1 149 165.5 L 153.5 160 L 155 160.5 L 153 164 Q 150.3 162.9 151 165.5 L 148 167 L 144.5 172 Q 142.3 171.3 143 173.5 L 136 178.5 L 134.5 181 L 131 182.5 Q 131.8 184.8 129.5 184 L 119 191 L 118.5 193 L 116.5 192 L 113.5 195 L 106 197 L 105.5 199 L 103.5 199 L 98.5 201 L 93.5 201 L 82.5 197 L 81 197.5 L 81.5 196 L 65.5 188 L 64 188.5 Q 66.3 187.3 63.5 186 Q 51.8 179.7 43.5 170 L 42 170.5 L 42 168.5 L 35.5 160 L 34 160.5 L 34 158.5 L 25 138.5 L 23 123 L 21 122.5 L 22 121.5 L 22 113 Z " /><path fill="rgb(119,120,120)" stroke="rgb(119,120,120)" stroke-width="1" opacity="0.5764705882352941" d="M 130.5 115 L 131 117 L 129 116.5 L 130.5 115 Z " /><path fill="rgb(119,120,120)" stroke="rgb(119,120,120)" stroke-width="1" opacity="0.5764705882352941" d="M 77.5 116 L 112.5 116 L 114 117.5 L 112.5 117 L 78.5 117 L 73.5 120 L 73 117 L 77.5 116 Z " /><path fill="rgb(119,120,120)" stroke="rgb(119,120,120)" stroke-width="1" opacity="0.5764705882352941" d="M 115.5 118 L 117 120.5 L 115 121 L 115.5 118 Z " /><path fill="rgb(119,120,120)" stroke="rgb(119,120,120)" stroke-width="1" opacity="0.5764705882352941" d="M 37.5 120 L 38 126.5 L 37 126.5 L 37.5 120 Z " /><path fill="rgb(119,120,120)" stroke="rgb(119,120,120)" stroke-width="1" opacity="0.5764705882352941" d="M 72.5 121 L 74 123.5 L 72 122.5 L 72.5 121 Z " /><path fill="rgb(119,120,120)" stroke="rgb(119,120,120)" stroke-width="1" opacity="0.5764705882352941" d="M 129 121 Q 132.3 119.7 131 124.5 L 130 124.5 L 129 121 Z " /><path fill="rgb(119,120,120)" stroke="rgb(119,120,120)" stroke-width="1" opacity="0.5764705882352941" d="M 114.5 124 L 116 124.5 L 113 126.5 L 114.5 124 Z " /><path fill="rgb(119,120,120)" stroke="rgb(119,120,120)" stroke-width="1" opacity="0.5764705882352941" d="M 77.5 126 L 112 126.5 L 77.5 127 L 77.5 126 Z " /><path fill="rgb(119,120,120)" stroke="rgb(119,120,120)" stroke-width="1" opacity="0.5764705882352941" d="M 129 126 Q 132 125 131 128 Q 128 129 129 126 Z " /><path fill="rgb(119,120,120)" stroke="rgb(119,120,120)" stroke-width="1" opacity="0.5764705882352941" d="M 153.5 126 L 152.5 128 L 153.5 126 Z " /><path fill="rgb(119,120,120)" stroke="rgb(119,120,120)" stroke-width="1" opacity="0.5764705882352941" d="M 131.5 129 L 132 143 L 130 142.5 L 131 139.5 L 131 137.5 L 131.5 129 Z " /><path fill="rgb(119,120,120)" stroke="rgb(119,120,120)" stroke-width="1" opacity="0.5764705882352941" d="M 152.5 129 L 153 132.5 L 152 132.5 L 152.5 129 Z " /><path fill="rgb(119,120,120)" stroke="rgb(119,120,120)" stroke-width="1" opacity="0.5764705882352941" d="M 37 130 Q 39.7 128.9 39 131.5 L 37 132.5 L 37 130 Z " /><path fill="rgb(119,120,120)" stroke="rgb(119,120,120)" stroke-width="1" opacity="0.5764705882352941" d="M 165.5 130 L 166.5 132 Q 163.7 132.7 165.5 130 Z " /><path fill="rgb(119,120,120)" stroke="rgb(119,120,120)" stroke-width="1" opacity="0.5764705882352941" d="M 77.5 132 L 78.5 133 L 100.5 133 L 102.5 133 L 105 134.5 L 106 136.5 L 104 137 L 102.5 134 L 75 133.5 L 77.5 132 Z " /><path fill="rgb(119,120,120)" stroke="rgb(119,120,120)" stroke-width="1" opacity="0.5764705882352941" d="M 151.5 134 L 152 136.5 Q 145.5 155.5 131.5 167 L 118.5 177 L 118 175.5 L 122 172.5 L 122.5 171 L 123.5 172 L 128.5 167 L 130 166.5 L 129.5 165 L 130.5 166 L 139 157.5 L 141 154.5 L 140.5 153 L 142 153.5 Q 148.9 145.9 151.5 134 Z " /><path fill="rgb(119,120,120)" stroke="rgb(119,120,120)" stroke-width="1" opacity="0.5764705882352941" d="M 164 136 Q 167 135 166 138 Q 163 139 164 136 Z " /><path fill="rgb(119,120,120)" stroke="rgb(119,120,120)" stroke-width="1" opacity="0.5764705882352941" d="M 39 138 L 41 138.5 L 39 139.5 L 39 138 Z " /><path fill="rgb(119,120,120)" stroke="rgb(119,120,120)" stroke-width="1" opacity="0.5764705882352941" d="M 163 140 L 165 140.5 L 163 141.5 L 163 140 Z " /><path fill="rgb(119,120,120)" stroke="rgb(119,120,120)" stroke-width="1" opacity="0.5764705882352941" d="M 40.5 141 Q 42.8 140.3 42 142.5 L 40.5 141 Z " /><path fill="rgb(119,120,120)" stroke="rgb(119,120,120)" stroke-width="1" opacity="0.5764705882352941" d="M 75.5 142 L 78.5 143 L 99.5 143 L 103.5 142 L 103.5 143 L 94.5 145 L 93.5 144 L 78.5 144 L 75.5 143 L 75.5 142 Z " /><path fill="rgb(119,120,120)" stroke="rgb(119,120,120)" stroke-width="1" opacity="0.5764705882352941" d="M 142 142 Q 145 140.8 144 144.5 L 142 143.5 L 142 142 Z " /><path fill="rgb(119,120,120)" stroke="rgb(119,120,120)" stroke-width="1" opacity="0.5764705882352941" d="M 162 143 L 164 143.5 L 163 147 Q 160.3 148.1 161 145.5 L 162 143 Z " /><path fill="rgb(119,120,120)" stroke="rgb(119,120,120)" stroke-width="1" opacity="0.5764705882352941" d="M 41.5 144 L 44 145.5 L 42.5 146 L 41.5 144 Z " /><path fill="rgb(119,120,120)" stroke="rgb(119,120,120)" stroke-width="1" opacity="0.5764705882352941" d="M 131.5 144 L 132 155.5 L 133 156.5 L 131 157 Q 132.5 153.3 129.5 154 L 129.5 153 Q 132.5 153.9 131 149.5 L 131 147.5 L 131.5 144 Z " /><path fill="rgb(119,120,120)" stroke="rgb(119,120,120)" stroke-width="1" opacity="0.5764705882352941" d="M 141.5 145 L 141 146.5 L 138 153 L 136 152.5 L 141.5 145 Z " /><path fill="rgb(119,120,120)" stroke="rgb(119,120,120)" stroke-width="1" opacity="0.5764705882352941" d="M 160.5 148 L 162 148.5 L 160 149.5 L 160 151.5 Q 160.8 153.8 158.5 153 L 157.5 156 L 156 155.5 L 160.5 148 Z " /><path fill="rgb(119,120,120)" stroke="rgb(119,120,120)" stroke-width="1" opacity="0.5764705882352941" d="M 44.5 149 Q 46.8 148.3 46 150.5 Q 48 154.2 50 152.5 Q 46.3 154.3 49.5 156 Q 51.8 155.3 51 157.5 L 53.5 161 L 59.5 165 L 61 164.5 Q 58.5 166 62 167.5 L 62 169 L 65 169 Q 63.9 171.7 66.5 171 Q 69.8 175.6 76 176 Q 74.8 179 78.5 178 L 90.5 185 Q 91.8 182.8 93 185.5 L 92.5 187 L 84.5 182 L 82.5 182 Q 64 173.5 51 159.5 L 44.5 149 Z " /><path fill="rgb(119,120,120)" stroke="rgb(119,120,120)" stroke-width="1" opacity="0.5764705882352941" d="M 155.5 157 L 157 157.5 L 154.5 159 L 155.5 157 Z " /><path fill="rgb(119,120,120)" stroke="rgb(119,120,120)" stroke-width="1" opacity="0.5764705882352941" d="M 129.5 159 L 131 159.5 L 128.5 161 L 129.5 159 Z " /><path fill="rgb(119,120,120)" stroke="rgb(119,120,120)" stroke-width="1" opacity="0.5764705882352941" d="M 116.5 176 L 117 177.5 L 115 178.5 L 116.5 176 Z " /><path fill="rgb(119,120,120)" stroke="rgb(119,120,120)" stroke-width="1" opacity="0.5764705882352941" d="M 113.5 178 L 114 180 L 99.5 187 L 99 185 L 104 183.5 L 103.5 182 L 105.5 183 L 113.5 178 Z " /><path fill="rgb(119,120,120)" stroke="rgb(119,120,120)" stroke-width="1" opacity="0.5764705882352941" d="M 94.5 186 L 98 186.5 L 95.5 188 L 94.5 186 Z " /><path fill="rgb(51,52,52)" stroke="rgb(51,52,52)" stroke-width="1" opacity="0.21568627450980393" d="M 90.5 1 L 96 1.5 L 90.5 2 L 90.5 1 Z " /><path fill="rgb(51,52,52)" stroke="rgb(51,52,52)" stroke-width="1" opacity="0.21568627450980393" d="M 65.5 10 L 66 12 L 64 11.5 L 65.5 10 Z " /><path fill="rgb(51,52,52)" stroke="rgb(51,52,52)" stroke-width="1" opacity="0.21568627450980393" d="M 62.5 13 L 58.5 18 L 62.5 13 Z " /><path fill="rgb(51,52,52)" stroke="rgb(51,52,52)" stroke-width="1" opacity="0.21568627450980393" d="M 57.5 19 L 56.5 21 L 57.5 19 Z " /><path fill="rgb(51,52,52)" stroke="rgb(51,52,52)" stroke-width="1" opacity="0.21568627450980393" d="M 113.5 22 L 116.5 26 L 113.5 22 Z " /><path fill="rgb(51,52,52)" stroke="rgb(51,52,52)" stroke-width="1" opacity="0.21568627450980393" d="M 119.5 30 L 121 32.5 L 119 31.5 L 119.5 30 Z " /><path fill="rgb(51,52,52)" stroke="rgb(51,52,52)" stroke-width="1" opacity="0.21568627450980393" d="M 50.5 35 L 51 38.5 L 50 38.5 L 50.5 35 Z " /><path fill="rgb(51,52,52)" stroke="rgb(51,52,52)" stroke-width="1" opacity="0.21568627450980393" d="M 121.5 35 L 122 37.5 L 121 37.5 L 121.5 35 Z " /><path fill="rgb(51,52,52)" stroke="rgb(51,52,52)" stroke-width="1" opacity="0.21568627450980393" d="M 122.5 41 L 123 46.5 L 122 46.5 L 122.5 41 Z " /><path fill="rgb(51,52,52)" stroke="rgb(51,52,52)" stroke-width="1" opacity="0.21568627450980393" d="M 137.5 45 L 138 47.5 L 137 47.5 L 137.5 45 Z " /><path fill="rgb(51,52,52)" stroke="rgb(51,52,52)" stroke-width="1" opacity="0.21568627450980393" d="M 122.5 48 L 123.5 50 L 122.5 48 Z " /><path fill="rgb(51,52,52)" stroke="rgb(51,52,52)" stroke-width="1" opacity="0.21568627450980393" d="M 69.5 74 L 67.5 77 L 69.5 74 Z " /><path fill="rgb(51,52,52)" stroke="rgb(51,52,52)" stroke-width="1" opacity="0.21568627450980393" d="M 56.5 87 L 55.5 89 L 56.5 87 Z " /><path fill="rgb(51,52,52)" stroke="rgb(51,52,52)" stroke-width="1" opacity="0.21568627450980393" d="M 21.5 89 L 22 92.5 L 21 92.5 L 21.5 89 Z " /><path fill="rgb(51,52,52)" stroke="rgb(51,52,52)" stroke-width="1" opacity="0.21568627450980393" d="M 79.5 89 L 80 96.5 L 79 96.5 L 79.5 89 Z " /><path fill="rgb(51,52,52)" stroke="rgb(51,52,52)" stroke-width="1" opacity="0.21568627450980393" d="M 130.5 89 L 131 91.5 L 130 91.5 L 130.5 89 Z " /><path fill="rgb(51,52,52)" stroke="rgb(51,52,52)" stroke-width="1" opacity="0.21568627450980393" d="M 50.5 93 L 47.5 97 L 50.5 93 Z " /><path fill="rgb(51,52,52)" stroke="rgb(51,52,52)" stroke-width="1" opacity="0.21568627450980393" d="M 21.5 102 L 22 104.5 L 21 104.5 L 21.5 102 Z " /><path fill="rgb(51,52,52)" stroke="rgb(51,52,52)" stroke-width="1" opacity="0.21568627450980393" d="M 79.5 102 L 80 105.5 L 79 105.5 L 79.5 102 Z " /><path fill="rgb(51,52,52)" stroke="rgb(51,52,52)" stroke-width="1" opacity="0.21568627450980393" d="M 45.5 104 L 46 114.5 L 45 114.5 L 45.5 104 Z " /><path fill="rgb(51,52,52)" stroke="rgb(51,52,52)" stroke-width="1" opacity="0.21568627450980393" d="M 45.5 120 L 46 122.5 L 45 122.5 L 45.5 120 Z " /><path fill="rgb(51,52,52)" stroke="rgb(51,52,52)" stroke-width="1" opacity="0.21568627450980393" d="M 22.5 123 L 23 126.5 L 22 126.5 L 22.5 123 Z " /><path fill="rgb(51,52,52)" stroke="rgb(51,52,52)" stroke-width="1" opacity="0.21568627450980393" d="M 45.5 124 L 46 126.5 L 45 126.5 L 45.5 124 Z " /><path fill="rgb(51,52,52)" stroke="rgb(51,52,52)" stroke-width="1" opacity="0.21568627450980393" d="M 166.5 125 L 167 128.5 L 166 128.5 L 166.5 125 Z " /><path fill="rgb(51,52,52)" stroke="rgb(51,52,52)" stroke-width="1" opacity="0.21568627450980393" d="M 23.5 131 L 24 133.5 L 23 133.5 L 23.5 131 Z " /><path fill="rgb(51,52,52)" stroke="rgb(51,52,52)" stroke-width="1" opacity="0.21568627450980393" d="M 150.5 134 L 151 136.5 L 150 136.5 L 150.5 134 Z " /><path fill="rgb(51,52,52)" stroke="rgb(51,52,52)" stroke-width="1" opacity="0.21568627450980393" d="M 149.5 138 L 150 139.5 L 148.5 142 L 148 140.5 L 149.5 138 Z " /><path fill="rgb(51,52,52)" stroke="rgb(51,52,52)" stroke-width="1" opacity="0.21568627450980393" d="M 25.5 139 L 27 143.5 L 26 143.5 L 25.5 139 Z " /><path fill="rgb(51,52,52)" stroke="rgb(51,52,52)" stroke-width="1" opacity="0.21568627450980393" d="M 130.5 139 L 131 141.5 L 130 141.5 L 130.5 139 Z " /><path fill="rgb(51,52,52)" stroke="rgb(51,52,52)" stroke-width="1" opacity="0.21568627450980393" d="M 47.5 142 L 50 146.5 L 48 145.5 L 47.5 142 Z " /><path fill="rgb(51,52,52)" stroke="rgb(51,52,52)" stroke-width="1" opacity="0.21568627450980393" d="M 130.5 144 L 131 147.5 L 130 147.5 L 130.5 144 Z " /><path fill="rgb(51,52,52)" stroke="rgb(51,52,52)" stroke-width="1" opacity="0.21568627450980393" d="M 27.5 145 L 29 147.5 L 27 146.5 L 27.5 145 Z " /><path fill="rgb(51,52,52)" stroke="rgb(51,52,52)" stroke-width="1" opacity="0.21568627450980393" d="M 145.5 147 L 145 148.5 L 144.5 150 L 144 148.5 L 145.5 147 Z " /><path fill="rgb(51,52,52)" stroke="rgb(51,52,52)" stroke-width="1" opacity="0.21568627450980393" d="M 130.5 149 L 131 152.5 L 130 152.5 L 130.5 149 Z " /><path fill="rgb(51,52,52)" stroke="rgb(51,52,52)" stroke-width="1" opacity="0.21568627450980393" d="M 30.5 152 L 34 158.5 L 33 158.5 L 30.5 152 Z " /><path fill="rgb(51,52,52)" stroke="rgb(51,52,52)" stroke-width="1" opacity="0.21568627450980393" d="M 137.5 157 L 138 158.5 L 134 161.5 L 137.5 157 Z " /><path fill="rgb(51,52,52)" stroke="rgb(51,52,52)" stroke-width="1" opacity="0.21568627450980393" d="M 52.5 159 L 53.5 161 L 52.5 159 Z " /><path fill="rgb(51,52,52)" stroke="rgb(51,52,52)" stroke-width="1" opacity="0.21568627450980393" d="M 37.5 163 L 38.5 165 L 37.5 163 Z " /><path fill="rgb(51,52,52)" stroke="rgb(51,52,52)" stroke-width="1" opacity="0.21568627450980393" d="M 126.5 168 L 124.5 171 L 126.5 168 Z " /><path fill="rgb(51,52,52)" stroke="rgb(51,52,52)" stroke-width="1" opacity="0.21568627450980393" d="M 51.5 177 L 52.5 179 L 51.5 177 Z " /><path fill="rgb(51,52,52)" stroke="rgb(51,52,52)" stroke-width="1" opacity="0.21568627450980393" d="M 137.5 177 L 136.5 179 L 137.5 177 Z " /><path fill="rgb(51,52,52)" stroke="rgb(51,52,52)" stroke-width="1" opacity="0.21568627450980393" d="M 112.5 178 L 111.5 180 L 112.5 178 Z " /><path fill="rgb(219,220,220)" stroke="rgb(219,220,220)" stroke-width="1" opacity="0.08627450980392157" d="M 75.5 1 L 77.5 2 L 79.5 1 L 79.5 2 L 78 2.5 L 78.5 4 L 76.5 3 L 76.5 5 L 74.5 5 L 73 4.5 L 76 2.5 L 75.5 1 Z " /><path fill="rgb(219,220,220)" stroke="rgb(219,220,220)" stroke-width="1" opacity="0.08627450980392157" d="M 103.5 1 L 106 1.5 L 103.5 2 L 103.5 1 Z " /><path fill="rgb(219,220,220)" stroke="rgb(219,220,220)" stroke-width="1" opacity="0.08627450980392157" d="M 109.5 1 L 112 1.5 L 109.5 2 L 109.5 1 Z " /><path fill="rgb(219,220,220)" stroke="rgb(219,220,220)" stroke-width="1" opacity="0.08627450980392157" d="M 96.5 15 L 100 15.5 L 96.5 16 L 96.5 15 Z " /><path fill="rgb(219,220,220)" stroke="rgb(219,220,220)" stroke-width="1" opacity="0.08627450980392157" d="M 84.5 18 L 88 18.5 L 84.5 19 L 84.5 18 Z " /><path fill="rgb(219,220,220)" stroke="rgb(219,220,220)" stroke-width="1" opacity="0.08627450980392157" d="M 108.5 18 L 109 20 L 106 19.5 L 108.5 18 Z " /><path fill="rgb(219,220,220)" stroke="rgb(219,220,220)" stroke-width="1" opacity="0.08627450980392157" d="M 111.5 20 L 112 22.5 L 111 22.5 L 111.5 20 Z " /><path fill="rgb(219,220,220)" stroke="rgb(219,220,220)" stroke-width="1" opacity="0.08627450980392157" d="M 131.5 20 L 132.5 22 L 131.5 20 Z " /><path fill="rgb(219,220,220)" stroke="rgb(219,220,220)" stroke-width="1" opacity="0.08627450980392157" d="M 74.5 22 Q 76.8 21.3 76 23.5 L 74.5 22 Z " /><path fill="rgb(219,220,220)" stroke="rgb(219,220,220)" stroke-width="1" opacity="0.08627450980392157" d="M 49.5 25 L 48.5 27 L 49.5 25 Z " /><path fill="rgb(219,220,220)" stroke="rgb(219,220,220)" stroke-width="1" opacity="0.08627450980392157" d="M 115.5 26 L 118 29.5 L 114 28.5 L 115.5 26 Z " /><path fill="rgb(219,220,220)" stroke="rgb(219,220,220)" stroke-width="1" opacity="0.08627450980392157" d="M 120 34 L 122 34.5 L 120 35.5 L 120 34 Z " /><path fill="rgb(219,220,220)" stroke="rgb(219,220,220)" stroke-width="1" opacity="0.08627450980392157" d="M 77.5 42 L 81 44.5 L 79.5 44 L 77.5 42 Z " /><path fill="rgb(219,220,220)" stroke="rgb(219,220,220)" stroke-width="1" opacity="0.08627450980392157" d="M 106.5 42 L 108.5 45 L 104.5 44 L 102.5 45 L 102.5 44 L 106.5 42 Z " /><path fill="rgb(219,220,220)" stroke="rgb(219,220,220)" stroke-width="1" opacity="0.08627450980392157" d="M 77.5 45 L 79 47.5 L 77.5 47 L 76 46.5 L 77.5 45 Z " /><path fill="rgb(219,220,220)" stroke="rgb(219,220,220)" stroke-width="1" opacity="0.08627450980392157" d="M 123 50 Q 126 49 125 52 Q 122 53 123 50 Z " /><path fill="rgb(219,220,220)" stroke="rgb(219,220,220)" stroke-width="1" opacity="0.08627450980392157" d="M 128.5 51 L 136 53 Q 137.1 56.3 133 55 Q 134.1 51.5 126.5 53 L 126.5 52 L 128.5 51 Z " /><path fill="rgb(219,220,220)" stroke="rgb(219,220,220)" stroke-width="1" opacity="0.08627450980392157" d="M 59.5 53 L 58.5 55 L 56 54.5 L 59.5 53 Z " /><path fill="rgb(219,220,220)" stroke="rgb(219,220,220)" stroke-width="1" opacity="0.08627450980392157" d="M 142.5 54 L 143.5 56 L 142.5 54 Z " /><path fill="rgb(219,220,220)" stroke="rgb(219,220,220)" stroke-width="1" opacity="0.08627450980392157" d="M 48.5 55 L 50 58 L 48 57.5 L 48.5 55 Z " /><path fill="rgb(219,220,220)" stroke="rgb(219,220,220)" stroke-width="1" opacity="0.08627450980392157" d="M 51 55 L 55 55.5 L 51.5 57 L 51 55 Z " /><path fill="rgb(219,220,220)" stroke="rgb(219,220,220)" stroke-width="1" opacity="0.08627450980392157" d="M 85.5 59 Q 87.8 58.3 87 60.5 L 85.5 59 Z " /><path fill="rgb(219,220,220)" stroke="rgb(219,220,220)" stroke-width="1" opacity="0.08627450980392157" d="M 97.5 59 Q 99 62.5 100.5 60 L 102 60.5 L 98 62 L 97.5 59 Z " /><path fill="rgb(219,220,220)" stroke="rgb(219,220,220)" stroke-width="1" opacity="0.08627450980392157" d="M 106.5 60 Q 108.8 59.3 108 61.5 L 110 61.5 L 108.5 65 L 107.5 62 L 105 63.5 L 105.5 62 L 103.5 63 L 103 61 L 106.5 60 Z " /><path fill="rgb(219,220,220)" stroke="rgb(219,220,220)" stroke-width="1" opacity="0.08627450980392157" d="M 81.5 62 L 84 63.5 L 82.5 63 L 81.5 62 Z " /><path fill="rgb(219,220,220)" stroke="rgb(219,220,220)" stroke-width="1" opacity="0.08627450980392157" d="M 100.5 63 L 101.5 65 L 100.5 63 Z " /><path fill="rgb(219,220,220)" stroke="rgb(219,220,220)" stroke-width="1" opacity="0.08627450980392157" d="M 122.5 67 L 126 68.5 L 125.5 70 L 130.5 68 L 134 69.5 L 131.5 70 L 129.5 69 L 129.5 71 L 78 70.5 L 98.5 70 L 99.5 69 Q 101.3 71.8 107.5 70 L 109.5 70 L 119.5 70 L 120 68 L 121.5 68 L 122.5 67 Z " /><path fill="rgb(219,220,220)" stroke="rgb(219,220,220)" stroke-width="1" opacity="0.08627450980392157" d="M 60.5 68 L 62 68.5 L 59 70.5 L 60 72.5 L 58 71.5 Q 56.9 68.2 59.5 69 L 60.5 68 Z " /><path fill="rgb(219,220,220)" stroke="rgb(219,220,220)" stroke-width="1" opacity="0.08627450980392157" d="M 72.5 71 L 74 71.5 L 71.5 73 L 72.5 71 Z " /><path fill="rgb(219,220,220)" stroke="rgb(219,220,220)" stroke-width="1" opacity="0.08627450980392157" d="M 141 72 L 143 72.5 L 141 73.5 L 141 72 Z " /><path fill="rgb(219,220,220)" stroke="rgb(219,220,220)" stroke-width="1" opacity="0.08627450980392157" d="M 150.5 75 L 152 77.5 L 149.5 78 L 148 77.5 L 149 80.5 L 148 80.5 L 146.5 77 L 144.5 81 L 144 78.5 L 144.5 76 Q 149.2 77.2 150.5 75 Z " /><path fill="rgb(219,220,220)" stroke="rgb(219,220,220)" stroke-width="1" opacity="0.08627450980392157" d="M 38 76 L 41 77.5 L 39 77.5 L 38.5 81 L 38 76 Z " /><path fill="rgb(219,220,220)" stroke="rgb(219,220,220)" stroke-width="1" opacity="0.08627450980392157" d="M 59.5 83 L 58.5 85 L 59.5 83 Z " /><path fill="rgb(219,220,220)" stroke="rgb(219,220,220)" stroke-width="1" opacity="0.08627450980392157" d="M 81.5 83 L 129 83.5 L 99.5 84 L 98.5 85 L 97.5 84 L 83 84 L 83 86 Q 80.3 84.9 81 87.5 L 80 87.5 Q 79.3 83.8 81.5 83 Z " /><path fill="rgb(219,220,220)" stroke="rgb(219,220,220)" stroke-width="1" opacity="0.08627450980392157" d="M 84.5 85 L 88 86.5 L 86.5 86 Q 83.5 86.5 84.5 85 Z " /><path fill="rgb(219,220,220)" stroke="rgb(219,220,220)" stroke-width="1" opacity="0.08627450980392157" d="M 152.5 85 L 153 112.5 L 152 112.5 L 152.5 85 Z " /><path fill="rgb(219,220,220)" stroke="rgb(219,220,220)" stroke-width="1" opacity="0.08627450980392157" d="M 66.5 94 L 68 96.5 L 65 97 L 66.5 94 Z " /><path fill="rgb(219,220,220)" stroke="rgb(219,220,220)" stroke-width="1" opacity="0.08627450980392157" d="M 45.5 97 Q 47.8 96.3 47 98.5 L 45.5 97 Z " /><path fill="rgb(219,220,220)" stroke="rgb(219,220,220)" stroke-width="1" opacity="0.08627450980392157" d="M 80.5 97 L 81 99.5 L 80 99.5 L 80.5 97 Z " /><path fill="rgb(219,220,220)" stroke="rgb(219,220,220)" stroke-width="1" opacity="0.08627450980392157" d="M 38.5 99 L 41 100.5 L 38 101 L 38.5 99 Z " /><path fill="rgb(219,220,220)" stroke="rgb(219,220,220)" stroke-width="1" opacity="0.08627450980392157" d="M 44.5 99 L 45 101.5 L 44 101.5 L 44.5 99 Z " /><path fill="rgb(219,220,220)" stroke="rgb(219,220,220)" stroke-width="1" opacity="0.08627450980392157" d="M 60 108 L 66 108.5 L 62.5 110 L 61 109.5 L 62 112.5 L 60 113 L 60 108 Z " /><path fill="rgb(219,220,220)" stroke="rgb(219,220,220)" stroke-width="1" opacity="0.08627450980392157" d="M 72.5 108 L 75 108.5 L 72.5 109 L 72.5 108 Z " /><path fill="rgb(219,220,220)" stroke="rgb(219,220,220)" stroke-width="1" opacity="0.08627450980392157" d="M 74.5 113 L 75 115.5 L 74 115.5 L 74.5 113 Z " /><path fill="rgb(219,220,220)" stroke="rgb(219,220,220)" stroke-width="1" opacity="0.08627450980392157" d="M 86.5 113 Q 89.1 112.3 88 115 L 83 114.5 L 86.5 113 Z " /><path fill="rgb(219,220,220)" stroke="rgb(219,220,220)" stroke-width="1" opacity="0.08627450980392157" d="M 103.5 113 L 104 115 L 101 114.5 L 103.5 113 Z " /><path fill="rgb(219,220,220)" stroke="rgb(219,220,220)" stroke-width="1" opacity="0.08627450980392157" d="M 72.5 114 L 73 116.5 L 72 116.5 L 72.5 114 Z " /><path fill="rgb(219,220,220)" stroke="rgb(219,220,220)" stroke-width="1" opacity="0.08627450980392157" d="M 77.5 114 L 80 114.5 L 77.5 115 L 77.5 114 Z " /><path fill="rgb(219,220,220)" stroke="rgb(219,220,220)" stroke-width="1" opacity="0.08627450980392157" d="M 108.5 114 L 111 114.5 L 108.5 115 L 108.5 114 Z " /><path fill="rgb(219,220,220)" stroke="rgb(219,220,220)" stroke-width="1" opacity="0.08627450980392157" d="M 112.5 114 L 116.5 115 L 118 114.5 L 118 117 Q 120.7 115.9 120 118.5 L 116.5 120 L 116.5 119 L 119 118.5 L 113 116.5 L 113.5 115 L 112.5 114 Z " /><path fill="rgb(219,220,220)" stroke="rgb(219,220,220)" stroke-width="1" opacity="0.08627450980392157" d="M 60.5 116 L 61.5 118 L 60.5 116 Z " /><path fill="rgb(219,220,220)" stroke="rgb(219,220,220)" stroke-width="1" opacity="0.08627450980392157" d="M 60.5 119 Q 63.5 120.5 60.5 122 L 60.5 119 Z " /><path fill="rgb(219,220,220)" stroke="rgb(219,220,220)" stroke-width="1" opacity="0.08627450980392157" d="M 116 121 L 119 121.5 Q 115.5 123 118 124.5 L 116.5 127 L 117 125.5 L 116 121 Z " /><path fill="rgb(219,220,220)" stroke="rgb(219,220,220)" stroke-width="1" opacity="0.08627450980392157" d="M 72.5 125 L 73.5 128 L 76 126.5 L 75 129.5 L 77 129.5 L 75.5 131 L 73 129.5 L 75 132.5 L 72 132.5 L 73 128.5 L 72.5 125 Z " /><path fill="rgb(219,220,220)" stroke="rgb(219,220,220)" stroke-width="1" opacity="0.08627450980392157" d="M 60.5 126 L 61 128.5 L 60 128.5 L 60.5 126 Z " /><path fill="rgb(219,220,220)" stroke="rgb(219,220,220)" stroke-width="1" opacity="0.08627450980392157" d="M 77.5 127 L 80 127.5 Q 80.8 129.8 78.5 129 L 77.5 127 Z " /><path fill="rgb(219,220,220)" stroke="rgb(219,220,220)" stroke-width="1" opacity="0.08627450980392157" d="M 96.5 127 L 97.5 129 L 95 128.5 L 96.5 127 Z " /><path fill="rgb(219,220,220)" stroke="rgb(219,220,220)" stroke-width="1" opacity="0.08627450980392157" d="M 104.5 127 L 111 128.5 L 110 130.5 L 110.5 132 L 108.5 132 L 106.5 133 L 106.5 130 L 109 131 Q 110.3 127.7 105.5 129 L 104.5 127 Z " /><path fill="rgb(219,220,220)" stroke="rgb(219,220,220)" stroke-width="1" opacity="0.08627450980392157" d="M 83.5 128 L 89 128.5 L 83.5 129 L 83.5 128 Z " /><path fill="rgb(219,220,220)" stroke="rgb(219,220,220)" stroke-width="1" opacity="0.08627450980392157" d="M 78.5 132 L 101 132.5 L 78.5 133 L 78.5 132 Z " /><path fill="rgb(219,220,220)" stroke="rgb(219,220,220)" stroke-width="1" opacity="0.08627450980392157" d="M 105 137 L 108 137.5 L 105.5 139 L 105 137 Z " /><path fill="rgb(219,220,220)" stroke="rgb(219,220,220)" stroke-width="1" opacity="0.08627450980392157" d="M 147.5 139 L 146.5 141 L 147.5 139 Z " /><path fill="rgb(219,220,220)" stroke="rgb(219,220,220)" stroke-width="1" opacity="0.08627450980392157" d="M 46.5 140 L 47.5 142 Q 44.7 142.7 46.5 140 Z " /><path fill="rgb(219,220,220)" stroke="rgb(219,220,220)" stroke-width="1" opacity="0.08627450980392157" d="M 72.5 142 L 73.5 144 L 72.5 142 Z " /><path fill="rgb(219,220,220)" stroke="rgb(219,220,220)" stroke-width="1" opacity="0.08627450980392157" d="M 76.5 143 Q 78.8 142.3 78 144.5 L 76.5 143 Z " /><path fill="rgb(219,220,220)" stroke="rgb(219,220,220)" stroke-width="1" opacity="0.08627450980392157" d="M 25.5 144 L 26.5 147 Q 29.1 146.3 28 149 Q 25.3 150.1 26 147.5 L 24 147.5 L 25.5 144 Z " /><path fill="rgb(219,220,220)" stroke="rgb(219,220,220)" stroke-width="1" opacity="0.08627450980392157" d="M 142.5 144 L 143 147 L 141 146.5 L 142.5 144 Z " /><path fill="rgb(219,220,220)" stroke="rgb(219,220,220)" stroke-width="1" opacity="0.08627450980392157" d="M 49.5 148 L 50.5 150 Q 48.3 149.3 49 151.5 L 48 151.5 L 49.5 148 Z " /><path fill="rgb(219,220,220)" stroke="rgb(219,220,220)" stroke-width="1" opacity="0.08627450980392157" d="M 27.5 150 L 29.5 153 Q 27.3 153.8 28 151.5 L 27.5 150 Z " /><path fill="rgb(219,220,220)" stroke="rgb(219,220,220)" stroke-width="1" opacity="0.08627450980392157" d="M 139.5 150 L 138.5 152 L 139.5 150 Z " /><path fill="rgb(219,220,220)" stroke="rgb(219,220,220)" stroke-width="1" opacity="0.08627450980392157" d="M 143.5 150 L 142 152.5 L 141.5 154 L 141 152.5 L 143.5 150 Z " /><path fill="rgb(219,220,220)" stroke="rgb(219,220,220)" stroke-width="1" opacity="0.08627450980392157" d="M 52.5 151 L 58.5 158 L 54.5 159 L 51 157.5 L 53 156.5 L 49 155.5 L 54 153.5 L 52.5 151 Z " /><path fill="rgb(219,220,220)" stroke="rgb(219,220,220)" stroke-width="1" opacity="0.08627450980392157" d="M 137.5 155 L 139 155.5 L 136.5 157 L 137.5 155 Z " /><path fill="rgb(219,220,220)" stroke="rgb(219,220,220)" stroke-width="1" opacity="0.08627450980392157" d="M 128.5 156 L 133.5 157 L 135 156.5 L 136 160 L 132.5 161 L 131.5 159 L 135 158.5 L 130.5 157 L 128.5 160 L 128 158.5 L 128.5 156 Z " /><path fill="rgb(219,220,220)" stroke="rgb(219,220,220)" stroke-width="1" opacity="0.08627450980392157" d="M 56.5 159 L 57 160.5 L 56 161.5 L 57.5 164 Q 53.2 162.3 56 160.5 L 56.5 159 Z " /><path fill="rgb(219,220,220)" stroke="rgb(219,220,220)" stroke-width="1" opacity="0.08627450980392157" d="M 58.5 159 Q 60.8 158.3 60 160.5 L 58.5 159 Z " /><path fill="rgb(219,220,220)" stroke="rgb(219,220,220)" stroke-width="1" opacity="0.08627450980392157" d="M 128.5 162 L 129 164 Q 131.7 162.9 131 165.5 L 129.5 165 Q 126.4 165.7 128.5 162 Z " /><path fill="rgb(219,220,220)" stroke="rgb(219,220,220)" stroke-width="1" opacity="0.08627450980392157" d="M 39.5 165 L 40.5 167 L 39.5 165 Z " /><path fill="rgb(219,220,220)" stroke="rgb(219,220,220)" stroke-width="1" opacity="0.08627450980392157" d="M 41.5 169 L 40.5 171 L 41.5 169 Z " /><path fill="rgb(219,220,220)" stroke="rgb(219,220,220)" stroke-width="1" opacity="0.08627450980392157" d="M 120.5 169 L 119.5 171 L 116.5 172 L 116 170 L 120.5 169 Z " /><path fill="rgb(219,220,220)" stroke="rgb(219,220,220)" stroke-width="1" opacity="0.08627450980392157" d="M 44.5 172 L 45.5 174 L 44.5 172 Z " /><path fill="rgb(219,220,220)" stroke="rgb(219,220,220)" stroke-width="1" opacity="0.08627450980392157" d="M 70.5 173 L 73 174.5 L 71.5 175 L 70.5 173 Z " /><path fill="rgb(219,220,220)" stroke="rgb(219,220,220)" stroke-width="1" opacity="0.08627450980392157" d="M 134.5 182 L 132.5 185 L 132 183 L 134.5 182 Z " /><path fill="rgb(219,220,220)" stroke="rgb(219,220,220)" stroke-width="1" opacity="0.08627450980392157" d="M 100.5 183 L 101.5 185 L 100.5 183 Z " /><path fill="rgb(219,220,220)" stroke="rgb(219,220,220)" stroke-width="1" opacity="0.08627450980392157" d="M 94.5 184 L 98 185.5 L 96.5 186 L 94.5 186 L 93 185.5 L 94.5 184 Z " /><path fill="rgb(219,220,220)" stroke="rgb(219,220,220)" stroke-width="1" opacity="0.08627450980392157" d="M 120.5 191 L 121.5 193 L 120.5 191 Z " /><path fill="rgb(219,220,220)" stroke="rgb(219,220,220)" stroke-width="1" opacity="0.08627450980392157" d="M 124.5 191 L 127 191.5 L 124 193 L 124.5 191 Z " /><path fill="rgb(219,220,220)" stroke="rgb(219,220,220)" stroke-width="1" opacity="0.08627450980392157" d="M 78.5 194 Q 82 196 77.5 198 L 78.5 194 Z " /><path fill="rgb(219,220,220)" stroke="rgb(219,220,220)" stroke-width="1" opacity="0.08627450980392157" d="M 80 198 L 82 198.5 L 80.5 201 L 80 198 Z " /><path fill="rgb(219,220,220)" stroke="rgb(219,220,220)" stroke-width="1" opacity="0.08627450980392157" d="M 86.5 198 L 88 200.5 L 87 200.5 L 86.5 198 Z " /><path fill="rgb(219,220,220)" stroke="rgb(219,220,220)" stroke-width="1" opacity="0.08627450980392157" d="M 83.5 199 L 86 200.5 L 84.5 200 L 83.5 199 Z " /><path fill="rgb(69,70,69)" stroke="rgb(69,70,69)" stroke-width="1" opacity="0.0196078431372549" d="M 122.5 10 L 127.5 16 L 122.5 10 Z " /><path fill="rgb(69,70,69)" stroke="rgb(69,70,69)" stroke-width="1" opacity="0.0196078431372549" d="M 109.5 19 L 110.5 21 L 109.5 19 Z " /><path fill="rgb(69,70,69)" stroke="rgb(69,70,69)" stroke-width="1" opacity="0.0196078431372549" d="M 116.5 26 L 117.5 28 L 116.5 26 Z " /><path fill="rgb(69,70,69)" stroke="rgb(69,70,69)" stroke-width="1" opacity="0.0196078431372549" d="M 121.5 38 L 122 40.5 L 121 40.5 L 121.5 38 Z " /><path fill="rgb(69,70,69)" stroke="rgb(69,70,69)" stroke-width="1" opacity="0.0196078431372549" d="M 137.5 38 L 138 42.5 L 137 42.5 L 137.5 38 Z " /><path fill="rgb(69,70,69)" stroke="rgb(69,70,69)" stroke-width="1" opacity="0.0196078431372549" d="M 65.5 41 L 66 45.5 L 65 45.5 L 65.5 41 Z " /><path fill="rgb(69,70,69)" stroke="rgb(69,70,69)" stroke-width="1" opacity="0.0196078431372549" d="M 49.5 44 L 50 46.5 L 49 46.5 L 49.5 44 Z " /><path fill="rgb(69,70,69)" stroke="rgb(69,70,69)" stroke-width="1" opacity="0.0196078431372549" d="M 137.5 48 L 138 51.5 L 137 51.5 L 137.5 48 Z " /><path fill="rgb(69,70,69)" stroke="rgb(69,70,69)" stroke-width="1" opacity="0.0196078431372549" d="M 165.5 66 L 167 68.5 L 166 68.5 L 165.5 66 Z " /><path fill="rgb(69,70,69)" stroke="rgb(69,70,69)" stroke-width="1" opacity="0.0196078431372549" d="M 21.5 72 L 22 75.5 L 21 75.5 L 21.5 72 Z " /><path fill="rgb(69,70,69)" stroke="rgb(69,70,69)" stroke-width="1" opacity="0.0196078431372549" d="M 151.5 78 L 152 89.5 L 151 89.5 L 151.5 78 Z " /><path fill="rgb(69,70,69)" stroke="rgb(69,70,69)" stroke-width="1" opacity="0.0196078431372549" d="M 64.5 79 L 57.5 87 L 64.5 79 Z " /><path fill="rgb(69,70,69)" stroke="rgb(69,70,69)" stroke-width="1" opacity="0.0196078431372549" d="M 21.5 81 L 22 88.5 L 21 88.5 L 21.5 81 Z " /><path fill="rgb(69,70,69)" stroke="rgb(69,70,69)" stroke-width="1" opacity="0.0196078431372549" d="M 52.5 91 L 51.5 93 L 52.5 91 Z " /><path fill="rgb(69,70,69)" stroke="rgb(69,70,69)" stroke-width="1" opacity="0.0196078431372549" d="M 21.5 93 L 22 95.5 L 21 95.5 L 21.5 93 Z " /><path fill="rgb(69,70,69)" stroke="rgb(69,70,69)" stroke-width="1" opacity="0.0196078431372549" d="M 21.5 97 L 22 101.5 L 21 101.5 L 21.5 97 Z " /><path fill="rgb(69,70,69)" stroke="rgb(69,70,69)" stroke-width="1" opacity="0.0196078431372549" d="M 151.5 98 L 152 100.5 L 151 100.5 L 151.5 98 Z " /><path fill="rgb(69,70,69)" stroke="rgb(69,70,69)" stroke-width="1" opacity="0.0196078431372549" d="M 45.5 99 L 46 101.5 L 45 101.5 L 45.5 99 Z " /><path fill="rgb(69,70,69)" stroke="rgb(69,70,69)" stroke-width="1" opacity="0.0196078431372549" d="M 21.5 107 L 22 121.5 L 21 121.5 L 21.5 107 Z " /><path fill="rgb(69,70,69)" stroke="rgb(69,70,69)" stroke-width="1" opacity="0.0196078431372549" d="M 151.5 110 L 152 112.5 L 151 112.5 L 151.5 110 Z " /><path fill="rgb(69,70,69)" stroke="rgb(69,70,69)" stroke-width="1" opacity="0.0196078431372549" d="M 37.5 116 L 38 119.5 L 37 119.5 L 37.5 116 Z " /><path fill="rgb(69,70,69)" stroke="rgb(69,70,69)" stroke-width="1" opacity="0.0196078431372549" d="M 71.5 120 L 72 122.5 L 71 122.5 L 71.5 120 Z " /><path fill="rgb(69,70,69)" stroke="rgb(69,70,69)" stroke-width="1" opacity="0.0196078431372549" d="M 72.5 124 L 74.5 127 L 72.5 124 Z " /><path fill="rgb(69,70,69)" stroke="rgb(69,70,69)" stroke-width="1" opacity="0.0196078431372549" d="M 143.5 138 L 144 141.5 L 143 141.5 L 143.5 138 Z " /><path fill="rgb(69,70,69)" stroke="rgb(69,70,69)" stroke-width="1" opacity="0.0196078431372549" d="M 72.5 140 L 74.5 143 L 72.5 140 Z " /><path fill="rgb(69,70,69)" stroke="rgb(69,70,69)" stroke-width="1" opacity="0.0196078431372549" d="M 51.5 150 L 56 155.5 L 51 151.5 L 51.5 150 Z " /><path fill="rgb(69,70,69)" stroke="rgb(69,70,69)" stroke-width="1" opacity="0.0196078431372549" d="M 142.5 150 L 141.5 152 L 142.5 150 Z " /><path fill="rgb(69,70,69)" stroke="rgb(69,70,69)" stroke-width="1" opacity="0.0196078431372549" d="M 139.5 155 L 138.5 157 L 139.5 155 Z " /><path fill="rgb(69,70,69)" stroke="rgb(69,70,69)" stroke-width="1" opacity="0.0196078431372549" d="M 35.5 161 L 36.5 163 L 35.5 161 Z " /><path fill="rgb(69,70,69)" stroke="rgb(69,70,69)" stroke-width="1" opacity="0.0196078431372549" d="M 38.5 165 L 39.5 167 L 38.5 165 Z " /><path fill="rgb(69,70,69)" stroke="rgb(69,70,69)" stroke-width="1" opacity="0.0196078431372549" d="M 41.5 168 L 43.5 171 L 41.5 168 Z " /><path fill="rgb(69,70,69)" stroke="rgb(69,70,69)" stroke-width="1" opacity="0.0196078431372549" d="M 45.5 172 L 49.5 177 L 45.5 172 Z " /><path fill="rgb(69,70,69)" stroke="rgb(69,70,69)" stroke-width="1" opacity="0.0196078431372549" d="M 53.5 179 L 54.5 181 L 53.5 179 Z " /><path fill="rgb(69,70,69)" stroke="rgb(69,70,69)" stroke-width="1" opacity="0.0196078431372549" d="M 57.5 182 L 58.5 184 L 57.5 182 Z " /><path fill="rgb(69,70,69)" stroke="rgb(69,70,69)" stroke-width="1" opacity="0.0196078431372549" d="M 61.5 185 L 62.5 187 L 61.5 185 Z " /><path fill="rgb(69,70,69)" stroke="rgb(69,70,69)" stroke-width="1" opacity="0.0196078431372549" d="M 77.5 194 L 78.5 196 L 77.5 194 Z " /><path fill="rgb(69,70,69)" stroke="rgb(69,70,69)" stroke-width="1" opacity="0.0196078431372549" d="M 85.5 198 L 86.5 200 L 85.5 198 Z " /><path fill="rgb(243,244,244)" stroke="rgb(243,244,244)" stroke-width="1" opacity="0.984313725490196" d="M 89.5 2 L 100 2.5 L 89.5 3 L 89.5 2 Z " /><path fill="rgb(243,244,244)" stroke="rgb(243,244,244)" stroke-width="1" opacity="0.984313725490196" d="M 84.5 3 L 87 3.5 L 84.5 4 L 84.5 3 Z " /><path fill="rgb(243,244,244)" stroke="rgb(243,244,244)" stroke-width="1" opacity="0.984313725490196" d="M 101.5 3 L 105 3.5 L 101.5 4 L 101.5 3 Z " /><path fill="rgb(243,244,244)" stroke="rgb(243,244,244)" stroke-width="1" opacity="0.984313725490196" d="M 78.5 5 L 80 5.5 L 78 6.5 L 78.5 8 L 76 7 Q 77.3 10.3 72.5 9 L 69.5 11 L 70.5 9 L 78.5 5 Z " /><path fill="rgb(243,244,244)" stroke="rgb(243,244,244)" stroke-width="1" opacity="0.984313725490196" d="M 112.5 6 L 111.5 8 L 112.5 6 Z " /><path fill="rgb(243,244,244)" stroke="rgb(243,244,244)" stroke-width="1" opacity="0.984313725490196" d="M 114.5 7 L 118 9.5 L 116.5 9 L 114.5 7 Z " /><path fill="rgb(243,244,244)" stroke="rgb(243,244,244)" stroke-width="1" opacity="0.984313725490196" d="M 119.5 10 L 130 21.5 L 128 20.5 L 125.5 17 Q 122.2 18.1 123 15.5 L 120 14 L 119.5 10 Z " /><path fill="rgb(243,244,244)" stroke="rgb(243,244,244)" stroke-width="1" opacity="0.984313725490196" d="M 67.5 11 L 64 15.5 Q 64.8 17.8 62.5 17 Q 52 27 53 48.5 L 55 50.5 Q 51.3 52.3 54.5 54 L 56.5 52 L 63.5 50 L 64 52 L 53.5 55 L 52 53.5 L 52 38.5 L 56 24.5 L 67.5 11 Z " /><path fill="rgb(243,244,244)" stroke="rgb(243,244,244)" stroke-width="1" opacity="0.984313725490196" d="M 87.5 13 L 90 13.5 L 87.5 14 L 87.5 13 Z " /><path fill="rgb(243,244,244)" stroke="rgb(243,244,244)" stroke-width="1" opacity="0.984313725490196" d="M 95.5 13 L 99 13.5 L 95.5 14 L 95.5 13 Z " /><path fill="rgb(243,244,244)" stroke="rgb(243,244,244)" stroke-width="1" opacity="0.984313725490196" d="M 75 17 L 78 17.5 L 69.5 25 L 73 20.5 L 72.5 19 Q 76.3 20 75 17 Z " /><path fill="rgb(243,244,244)" stroke="rgb(243,244,244)" stroke-width="1" opacity="0.984313725490196" d="M 110.5 17 L 121 26.5 L 125 33.5 L 125 37.5 L 125.5 43 L 127 42.5 L 125.5 45 L 127 45.5 L 126 47.5 L 132 50.5 L 130.5 51 L 124 47.5 Q 125.8 25.8 112.5 19 L 110.5 17 Z " /><path fill="rgb(243,244,244)" stroke="rgb(243,244,244)" stroke-width="1" opacity="0.984313725490196" d="M 129 23 L 132 24.5 L 133 27.5 L 132 27.5 L 130.5 25 Q 127.9 25.7 129 23 Z " /><path fill="rgb(243,244,244)" stroke="rgb(243,244,244)" stroke-width="1" opacity="0.984313725490196" d="M 67.5 28 L 67 29.5 L 65.5 33 L 65 31.5 L 67.5 28 Z " /><path fill="rgb(243,244,244)" stroke="rgb(243,244,244)" stroke-width="1" opacity="0.984313725490196" d="M 63.5 38 L 64 48.5 L 63 48.5 L 63.5 38 Z " /><path fill="rgb(243,244,244)" stroke="rgb(243,244,244)" stroke-width="1" opacity="0.984313725490196" d="M 135.5 38 L 136 52 L 133 50.5 L 135 50 L 135.5 38 Z " /><path fill="rgb(243,244,244)" stroke="rgb(243,244,244)" stroke-width="1" opacity="0.984313725490196" d="M 91.5 44 Q 99.8 43.2 104 46.5 L 100.5 48 L 100.5 46 L 91.5 45 L 89.5 46 L 89.5 45 L 91.5 44 Z " /><path fill="rgb(243,244,244)" stroke="rgb(243,244,244)" stroke-width="1" opacity="0.984313725490196" d="M 83.5 47 L 85 47.5 L 81.5 49 L 81.5 48 L 83.5 47 Z " /><path fill="rgb(243,244,244)" stroke="rgb(243,244,244)" stroke-width="1" opacity="0.984313725490196" d="M 72.5 51 L 74 51.5 L 67.5 54 L 67.5 53 L 72.5 51 Z " /><path fill="rgb(243,244,244)" stroke="rgb(243,244,244)" stroke-width="1" opacity="0.984313725490196" d="M 117.5 51 L 125 53 L 125.5 55 L 128 54 L 128.5 56 L 131.5 55 L 130.5 57 L 121 54.5 L 121.5 53 Q 116.7 53 117.5 51 Z " /><path fill="rgb(243,244,244)" stroke="rgb(243,244,244)" stroke-width="1" opacity="0.984313725490196" d="M 63.5 54 L 66 54.5 L 63 55 Q 64 58 61 57 Q 59.9 54.3 62.5 55 L 63.5 54 Z " /><path fill="rgb(243,244,244)" stroke="rgb(243,244,244)" stroke-width="1" opacity="0.984313725490196" d="M 133.5 56 L 137 57.5 L 135.5 58 L 133.5 56 Z " /><path fill="rgb(243,244,244)" stroke="rgb(243,244,244)" stroke-width="1" opacity="0.984313725490196" d="M 51.5 58 L 54 59.5 L 52.5 59 L 48 60 L 47.5 62 L 45.5 61 L 43.5 62 L 43.5 61 L 51.5 58 Z " /><path fill="rgb(243,244,244)" stroke="rgb(243,244,244)" stroke-width="1" opacity="0.984313725490196" d="M 138.5 58 L 154 63.5 L 152.5 64 L 140.5 60 L 138.5 58 Z " /><path fill="rgb(243,244,244)" stroke="rgb(243,244,244)" stroke-width="1" opacity="0.984313725490196" d="M 76.5 59 L 79 60.5 L 77.5 61 L 76.5 59 Z " /><path fill="rgb(243,244,244)" stroke="rgb(243,244,244)" stroke-width="1" opacity="0.984313725490196" d="M 73.5 60 L 76 61.5 L 74.5 61 L 73.5 60 Z " /><path fill="rgb(243,244,244)" stroke="rgb(243,244,244)" stroke-width="1" opacity="0.984313725490196" d="M 37.5 63 L 40 64.5 L 38.5 65 L 37.5 63 Z " /><path fill="rgb(243,244,244)" stroke="rgb(243,244,244)" stroke-width="1" opacity="0.984313725490196" d="M 59.5 65 L 60.5 67 L 59.5 65 Z " /><path fill="rgb(243,244,244)" stroke="rgb(243,244,244)" stroke-width="1" opacity="0.984313725490196" d="M 130 65 L 135 66.5 L 133 67.5 Q 133.8 65.3 131.5 66 L 130 66.5 L 130 65 Z " /><path fill="rgb(243,244,244)" stroke="rgb(243,244,244)" stroke-width="1" opacity="0.984313725490196" d="M 29.5 66 L 31 66.5 L 27.5 68 L 27.5 67 L 29.5 66 Z " /><path fill="rgb(243,244,244)" stroke="rgb(243,244,244)" stroke-width="1" opacity="0.984313725490196" d="M 57.5 66 L 58.5 68 L 57.5 66 Z " /><path fill="rgb(243,244,244)" stroke="rgb(243,244,244)" stroke-width="1" opacity="0.984313725490196" d="M 53.5 67 L 56 68.5 L 54.5 69 L 53.5 67 Z " /><path fill="rgb(243,244,244)" stroke="rgb(243,244,244)" stroke-width="1" opacity="0.984313725490196" d="M 163.5 67 L 164.5 69 L 163.5 67 Z " /><path fill="rgb(243,244,244)" stroke="rgb(243,244,244)" stroke-width="1" opacity="0.984313725490196" d="M 25.5 68 L 26.5 70 L 25 69.5 L 24.5 124 L 24 69.5 L 25.5 68 Z " /><path fill="rgb(243,244,244)" stroke="rgb(243,244,244)" stroke-width="1" opacity="0.984313725490196" d="M 77.5 72 L 130 72.5 L 87.5 73 L 83.5 74 L 81.5 74 L 77.5 73 L 77.5 72 Z " /><path fill="rgb(243,244,244)" stroke="rgb(243,244,244)" stroke-width="1" opacity="0.984313725490196" d="M 36.5 73 L 39 74.5 L 36 76.5 L 35.5 130 L 35 76.5 Q 38.1 74.8 36.5 73 Z " /><path fill="rgb(243,244,244)" stroke="rgb(243,244,244)" stroke-width="1" opacity="0.984313725490196" d="M 74.5 73 L 76 73.5 L 68 79.5 L 68.5 81 L 61 87.5 Q 61.8 90.1 58.5 89 L 58.5 88 L 66 81.5 L 72.5 74 L 74.5 73 Z " /><path fill="rgb(243,244,244)" stroke="rgb(243,244,244)" stroke-width="1" opacity="0.984313725490196" d="M 131.5 73 L 134 73.5 L 131.5 74 L 131.5 73 Z " /><path fill="rgb(243,244,244)" stroke="rgb(243,244,244)" stroke-width="1" opacity="0.984313725490196" d="M 152.5 74 L 156 76.5 L 155 77.5 L 155 131.5 L 152.5 139 L 152 136.5 L 154 131.5 L 154 75 L 152.5 74 Z " /><path fill="rgb(243,244,244)" stroke="rgb(243,244,244)" stroke-width="1" opacity="0.984313725490196" d="M 137.5 75 L 142 78.5 L 141.5 80 L 141 78 L 137 77.5 L 137.5 75 Z " /><path fill="rgb(243,244,244)" stroke="rgb(243,244,244)" stroke-width="1" opacity="0.984313725490196" d="M 79.5 81 L 81 81.5 L 79 82 L 78.5 84 L 78 82.5 L 79.5 81 Z " /><path fill="rgb(243,244,244)" stroke="rgb(243,244,244)" stroke-width="1" opacity="0.984313725490196" d="M 96.5 81 L 99 81.5 L 96.5 82 L 96.5 81 Z " /><path fill="rgb(243,244,244)" stroke="rgb(243,244,244)" stroke-width="1" opacity="0.984313725490196" d="M 100.5 81 L 129 81.5 L 100.5 82 L 100.5 81 Z " /><path fill="rgb(243,244,244)" stroke="rgb(243,244,244)" stroke-width="1" opacity="0.984313725490196" d="M 131.5 81 L 133 81.5 L 133 153.5 L 135 153.5 L 132 155 L 132 82.5 L 131.5 81 Z " /><path fill="rgb(243,244,244)" stroke="rgb(243,244,244)" stroke-width="1" opacity="0.984313725490196" d="M 67 89 L 69 89.5 L 68.5 91 Q 71.5 90.5 70 97.5 Q 68.3 100.8 61.5 99 L 60 97.5 L 67 90.5 L 67 89 Z M 67 92 L 62 97 L 63 98 L 69 98 L 69 92 L 67 92 Z " /><path fill="rgb(243,244,244)" stroke="rgb(243,244,244)" stroke-width="1" opacity="0.984313725490196" d="M 57.5 90 L 53 95.5 Q 53.8 97.8 51.5 97 L 49 100.5 L 49 136.5 L 52 146.5 L 56.5 152 L 57 137.5 L 56 134.5 L 57 132.5 L 57 128.5 L 57 112.5 L 56 110.5 L 57 106 L 59.5 105 L 60.5 106 L 75 106.5 L 58 107 L 57.5 155 Q 50.3 148.7 48 137.5 L 48 100.5 L 54.5 92 L 57.5 90 Z " /><path fill="rgb(243,244,244)" stroke="rgb(243,244,244)" stroke-width="1" opacity="0.984313725490196" d="M 76.5 118 L 80 119.5 L 77 121 L 76.5 119 L 75 122.5 L 76 124.5 L 75 124.5 L 74 120.5 L 76.5 118 Z " /><path fill="rgb(243,244,244)" stroke="rgb(243,244,244)" stroke-width="1" opacity="0.984313725490196" d="M 100.5 118 Q 104.3 117 103 120 L 100.5 118 Z " /><path fill="rgb(243,244,244)" stroke="rgb(243,244,244)" stroke-width="1" opacity="0.984313725490196" d="M 111 118 Q 114.7 116.5 114 119.5 L 113.5 122 L 111 121 L 111 118 Z " /><path fill="rgb(243,244,244)" stroke="rgb(243,244,244)" stroke-width="1" opacity="0.984313725490196" d="M 25.5 125 L 26 131.5 L 25 131.5 L 25.5 125 Z " /><path fill="rgb(243,244,244)" stroke="rgb(243,244,244)" stroke-width="1" opacity="0.984313725490196" d="M 79.5 125 L 102 125.5 L 79.5 126 L 79.5 125 Z " /><path fill="rgb(243,244,244)" stroke="rgb(243,244,244)" stroke-width="1" opacity="0.984313725490196" d="M 164.5 127 L 165 130.5 L 164 130.5 L 164.5 127 Z " /><path fill="rgb(243,244,244)" stroke="rgb(243,244,244)" stroke-width="1" opacity="0.984313725490196" d="M 36.5 132 L 37 134.5 L 36 134.5 L 36.5 132 Z " /><path fill="rgb(243,244,244)" stroke="rgb(243,244,244)" stroke-width="1" opacity="0.984313725490196" d="M 26.5 133 L 34 154 Q 37 152.8 36 156.5 L 46.5 169 L 48 169.5 L 47.5 171 L 55 177.5 L 48.5 172 L 45 169.5 Q 30.3 155.8 26.5 133 Z " /><path fill="rgb(243,244,244)" stroke="rgb(243,244,244)" stroke-width="1" opacity="0.984313725490196" d="M 163.5 133 L 164 135.5 L 163 135.5 L 163.5 133 Z " /><path fill="rgb(243,244,244)" stroke="rgb(243,244,244)" stroke-width="1" opacity="0.984313725490196" d="M 76.5 134 L 101.5 134 L 103 135.5 L 104 140.5 L 101.5 142 L 101.5 141 L 103 140.5 L 103 138.5 Q 103.9 135.5 99.5 137 L 99.5 136 L 101 135.5 L 79.5 135 L 79.5 137 L 76 138.5 L 77 141.5 L 75 140.5 L 74 136.5 L 76.5 134 Z " /><path fill="rgb(243,244,244)" stroke="rgb(243,244,244)" stroke-width="1" opacity="0.984313725490196" d="M 141.5 137 L 142 141.5 L 141 141.5 L 141.5 137 Z " /><path fill="rgb(243,244,244)" stroke="rgb(243,244,244)" stroke-width="1" opacity="0.984313725490196" d="M 151.5 140 L 152 141.5 Q 147.6 152.1 140 159.5 L 140.5 161 L 138.5 161 L 134 165.5 L 134.5 167 L 133.5 166 L 129 169.5 Q 143.8 158.3 151.5 140 Z " /><path fill="rgb(243,244,244)" stroke="rgb(243,244,244)" stroke-width="1" opacity="0.984313725490196" d="M 39.5 142 L 45 151.5 L 42 149.5 L 39.5 142 Z " /><path fill="rgb(243,244,244)" stroke="rgb(243,244,244)" stroke-width="1" opacity="0.984313725490196" d="M 140.5 143 L 141 144.5 L 138 146.5 Q 140.3 147.8 137.5 149 Q 135.3 149.8 136 147.5 L 140 145 L 140.5 143 Z " /><path fill="rgb(243,244,244)" stroke="rgb(243,244,244)" stroke-width="1" opacity="0.984313725490196" d="M 160.5 144 L 161 145.5 L 159.5 148 L 159 146.5 L 160.5 144 Z " /><path fill="rgb(243,244,244)" stroke="rgb(243,244,244)" stroke-width="1" opacity="0.984313725490196" d="M 158.5 149 L 157.5 151 L 158.5 149 Z " /><path fill="rgb(243,244,244)" stroke="rgb(243,244,244)" stroke-width="1" opacity="0.984313725490196" d="M 136.5 150 L 135.5 152 L 136.5 150 Z " /><path fill="rgb(243,244,244)" stroke="rgb(243,244,244)" stroke-width="1" opacity="0.984313725490196" d="M 156.5 152 L 157 153.5 L 155 154.5 L 156.5 152 Z " /><path fill="rgb(243,244,244)" stroke="rgb(243,244,244)" stroke-width="1" opacity="0.984313725490196" d="M 46.5 155 L 51 160.5 L 48.5 161 L 48 158.5 L 46.5 155 Z " /><path fill="rgb(243,244,244)" stroke="rgb(243,244,244)" stroke-width="1" opacity="0.984313725490196" d="M 154.5 156 L 153.5 158 L 154.5 156 Z " /><path fill="rgb(243,244,244)" stroke="rgb(243,244,244)" stroke-width="1" opacity="0.984313725490196" d="M 152.5 159 L 150 162.5 L 136.5 177 L 144 168.5 Q 143.3 166.3 145.5 167 L 152.5 159 Z " /><path fill="rgb(243,244,244)" stroke="rgb(243,244,244)" stroke-width="1" opacity="0.984313725490196" d="M 54.5 164 L 60 168.5 L 56 169 L 54.5 164 Z " /><path fill="rgb(243,244,244)" stroke="rgb(243,244,244)" stroke-width="1" opacity="0.984313725490196" d="M 61.5 169 L 63.5 172 L 61.5 169 Z " /><path fill="rgb(243,244,244)" stroke="rgb(243,244,244)" stroke-width="1" opacity="0.984313725490196" d="M 127.5 170 L 126.5 174 L 125 173.5 Q 125.7 176.1 123 175 L 123 177 L 119.5 177 L 115.5 180 L 116.5 178 L 127.5 170 Z " /><path fill="rgb(243,244,244)" stroke="rgb(243,244,244)" stroke-width="1" opacity="0.984313725490196" d="M 65.5 172 L 73 177.5 L 71.5 177 Q 66.5 175.5 65.5 172 Z " /><path fill="rgb(243,244,244)" stroke="rgb(243,244,244)" stroke-width="1" opacity="0.984313725490196" d="M 56.5 178 Q 58.8 177.3 58 179.5 L 62 181 L 63 183.5 L 60.5 182 L 56.5 178 Z " /><path fill="rgb(243,244,244)" stroke="rgb(243,244,244)" stroke-width="1" opacity="0.984313725490196" d="M 74.5 178 L 80 181.5 L 78.5 181 Q 74.5 180.5 74.5 178 Z " /><path fill="rgb(243,244,244)" stroke="rgb(243,244,244)" stroke-width="1" opacity="0.984313725490196" d="M 132.5 179 L 131.5 181 L 132.5 179 Z " /><path fill="rgb(243,244,244)" stroke="rgb(243,244,244)" stroke-width="1" opacity="0.984313725490196" d="M 111.5 181 L 111 182.5 L 110.5 184 L 108 183.5 L 111.5 181 Z " /><path fill="rgb(243,244,244)" stroke="rgb(243,244,244)" stroke-width="1" opacity="0.984313725490196" d="M 128.5 182 L 127.5 184 L 128.5 182 Z " /><path fill="rgb(243,244,244)" stroke="rgb(243,244,244)" stroke-width="1" opacity="0.984313725490196" d="M 83.5 183 L 89 185.5 L 87.5 186 L 83.5 184 L 83.5 183 Z " /><path fill="rgb(243,244,244)" stroke="rgb(243,244,244)" stroke-width="1" opacity="0.984313725490196" d="M 64.5 184 L 65.5 186 L 64.5 184 Z " /><path fill="rgb(243,244,244)" stroke="rgb(243,244,244)" stroke-width="1" opacity="0.984313725490196" d="M 103.5 185 L 105 185.5 L 99.5 188 L 99.5 187 L 103.5 185 Z " /><path fill="rgb(243,244,244)" stroke="rgb(243,244,244)" stroke-width="1" opacity="0.984313725490196" d="M 120.5 185 L 121.5 187 L 123 186.5 Q 121.5 189.5 120 186.5 L 120.5 185 Z " /><path fill="rgb(243,244,244)" stroke="rgb(243,244,244)" stroke-width="1" opacity="0.984313725490196" d="M 69.5 187 L 70.5 189 L 69.5 187 Z " /><path fill="rgb(243,244,244)" stroke="rgb(243,244,244)" stroke-width="1" opacity="0.984313725490196" d="M 92.5 187 L 98 188.5 L 94.5 189 L 92.5 187 Z " /><path fill="rgb(243,244,244)" stroke="rgb(243,244,244)" stroke-width="1" opacity="0.984313725490196" d="M 119.5 188 L 118.5 190 L 119.5 188 Z " /><path fill="rgb(243,244,244)" stroke="rgb(243,244,244)" stroke-width="1" opacity="0.984313725490196" d="M 115.5 189 L 116.5 191 L 115.5 189 Z " /><path fill="rgb(243,244,244)" stroke="rgb(243,244,244)" stroke-width="1" opacity="0.984313725490196" d="M 83.5 193 L 82.5 195 L 83.5 193 Z " /><path fill="rgb(243,244,244)" stroke="rgb(243,244,244)" stroke-width="1" opacity="0.984313725490196" d="M 110.5 193 L 109.5 195 L 108 194.5 L 110.5 193 Z " /><path fill="rgb(243,244,244)" stroke="rgb(243,244,244)" stroke-width="1" opacity="0.984313725490196" d="M 98.5 197 L 99.5 199 L 98.5 197 Z " /><path fill="rgb(175,177,177)" stroke="rgb(175,177,177)" stroke-width="1" opacity="0.9411764705882353" d="M 117.5 8 L 118.5 10 L 117.5 8 Z " /><path fill="rgb(175,177,177)" stroke="rgb(175,177,177)" stroke-width="1" opacity="0.9411764705882353" d="M 69.5 9 L 68.5 11 L 69.5 9 Z " /><path fill="rgb(175,177,177)" stroke="rgb(175,177,177)" stroke-width="1" opacity="0.9411764705882353" d="M 120.5 10 L 128.5 19 L 120.5 10 Z " /><path fill="rgb(175,177,177)" stroke="rgb(175,177,177)" stroke-width="1" opacity="0.9411764705882353" d="M 65.5 12 L 63.5 15 L 65.5 12 Z " /><path fill="rgb(175,177,177)" stroke="rgb(175,177,177)" stroke-width="1" opacity="0.9411764705882353" d="M 90.5 13 L 95 13.5 L 90.5 14 L 90.5 13 Z " /><path fill="rgb(175,177,177)" stroke="rgb(175,177,177)" stroke-width="1" opacity="0.9411764705882353" d="M 100.5 14 L 103 14.5 L 100.5 15 L 100.5 14 Z " /><path fill="rgb(175,177,177)" stroke="rgb(175,177,177)" stroke-width="1" opacity="0.9411764705882353" d="M 78.5 17 L 77.5 19 L 78.5 17 Z " /><path fill="rgb(175,177,177)" stroke="rgb(175,177,177)" stroke-width="1" opacity="0.9411764705882353" d="M 59.5 19 L 58 21.5 L 56.5 24 L 57 22.5 L 59.5 19 Z " /><path fill="rgb(175,177,177)" stroke="rgb(175,177,177)" stroke-width="1" opacity="0.9411764705882353" d="M 75.5 19 L 76.5 21 L 75.5 20 L 70 25.5 L 67.5 30 L 68 28.5 Q 69.6 21.6 75.5 19 Z " /><path fill="rgb(175,177,177)" stroke="rgb(175,177,177)" stroke-width="1" opacity="0.9411764705882353" d="M 112.5 19 L 113.5 21 L 112.5 19 Z " /><path fill="rgb(175,177,177)" stroke="rgb(175,177,177)" stroke-width="1" opacity="0.9411764705882353" d="M 129.5 20 L 132 23.5 L 130 22.5 L 129.5 20 Z " /><path fill="rgb(175,177,177)" stroke="rgb(175,177,177)" stroke-width="1" opacity="0.9411764705882353" d="M 116.5 23 L 119.5 27 L 117 26.5 L 118 25.5 L 116.5 23 Z " /><path fill="rgb(175,177,177)" stroke="rgb(175,177,177)" stroke-width="1" opacity="0.9411764705882353" d="M 132.5 25 Q 136.2 29.3 136 37.5 L 135 37.5 L 135 33.5 L 132.5 25 Z " /><path fill="rgb(175,177,177)" stroke="rgb(175,177,177)" stroke-width="1" opacity="0.9411764705882353" d="M 66.5 31 L 67 32.5 L 65 36.5 L 65 48.5 L 64 49.5 L 64.5 51 Q 61.8 49.7 64 48.5 Q 62.1 36.6 66.5 31 Z " /><path fill="rgb(175,177,177)" stroke="rgb(175,177,177)" stroke-width="1" opacity="0.9411764705882353" d="M 52.5 35 L 53 37.5 L 52 37.5 L 52.5 35 Z " /><path fill="rgb(175,177,177)" stroke="rgb(175,177,177)" stroke-width="1" opacity="0.9411764705882353" d="M 123.5 36 L 124 38.5 L 123 38.5 L 123.5 36 Z " /><path fill="rgb(175,177,177)" stroke="rgb(175,177,177)" stroke-width="1" opacity="0.9411764705882353" d="M 50.5 40 L 52 41.5 L 52 53.5 L 53 54.5 L 50 52.5 L 51 43.5 L 50.5 40 Z " /><path fill="rgb(175,177,177)" stroke="rgb(175,177,177)" stroke-width="1" opacity="0.9411764705882353" d="M 136.5 40 L 137 53 L 128 50.5 L 129.5 50 L 136 52 L 136.5 40 Z " /><path fill="rgb(175,177,177)" stroke="rgb(175,177,177)" stroke-width="1" opacity="0.9411764705882353" d="M 126.5 49 L 125.5 51 L 126.5 49 Z " /><path fill="rgb(175,177,177)" stroke="rgb(175,177,177)" stroke-width="1" opacity="0.9411764705882353" d="M 70.5 50 L 71.5 52 L 70.5 50 Z " /><path fill="rgb(175,177,177)" stroke="rgb(175,177,177)" stroke-width="1" opacity="0.9411764705882353" d="M 96.5 55 L 95.5 57 L 94 56.5 L 96.5 55 Z " /><path fill="rgb(175,177,177)" stroke="rgb(175,177,177)" stroke-width="1" opacity="0.9411764705882353" d="M 105.5 58 L 104.5 60 L 105.5 58 Z " /><path fill="rgb(175,177,177)" stroke="rgb(175,177,177)" stroke-width="1" opacity="0.9411764705882353" d="M 153.5 61 L 152.5 63 L 153.5 61 Z " /><path fill="rgb(175,177,177)" stroke="rgb(175,177,177)" stroke-width="1" opacity="0.9411764705882353" d="M 73.5 62 L 74.5 64 L 73.5 62 Z " /><path fill="rgb(175,177,177)" stroke="rgb(175,177,177)" stroke-width="1" opacity="0.9411764705882353" d="M 117.5 62 L 116.5 64 L 117.5 62 Z " /><path fill="rgb(175,177,177)" stroke="rgb(175,177,177)" stroke-width="1" opacity="0.9411764705882353" d="M 120.5 63 L 119.5 65 L 120.5 63 Z " /><path fill="rgb(175,177,177)" stroke="rgb(175,177,177)" stroke-width="1" opacity="0.9411764705882353" d="M 164.5 67 L 166 68.5 L 166 129.5 L 165 129.5 L 165 68.5 L 164.5 67 Z " /><path fill="rgb(175,177,177)" stroke="rgb(175,177,177)" stroke-width="1" opacity="0.9411764705882353" d="M 56.5 68 L 57.5 70 L 56.5 68 Z " /><path fill="rgb(175,177,177)" stroke="rgb(175,177,177)" stroke-width="1" opacity="0.9411764705882353" d="M 47.5 71 L 48.5 73 L 47.5 71 Z " /><path fill="rgb(175,177,177)" stroke="rgb(175,177,177)" stroke-width="1" opacity="0.9411764705882353" d="M 74.5 71 L 77 72.5 L 75.5 73 L 74.5 71 Z " /><path fill="rgb(175,177,177)" stroke="rgb(175,177,177)" stroke-width="1" opacity="0.9411764705882353" d="M 128.5 71 L 133 72.5 L 130.5 73 L 128.5 71 Z " /><path fill="rgb(175,177,177)" stroke="rgb(175,177,177)" stroke-width="1" opacity="0.9411764705882353" d="M 23.5 74 L 24 94.5 L 23 94.5 L 23.5 74 Z " /><path fill="rgb(175,177,177)" stroke="rgb(175,177,177)" stroke-width="1" opacity="0.9411764705882353" d="M 71.5 74 L 67.5 79 L 71.5 74 Z " /><path fill="rgb(175,177,177)" stroke="rgb(175,177,177)" stroke-width="1" opacity="0.9411764705882353" d="M 139.5 74 L 138.5 76 L 139.5 74 Z " /><path fill="rgb(175,177,177)" stroke="rgb(175,177,177)" stroke-width="1" opacity="0.9411764705882353" d="M 37.5 75 L 37 76.5 L 37 98.5 L 38 100.5 L 37 103.5 L 36.5 132 L 36 76.5 L 37.5 75 Z " /><path fill="rgb(175,177,177)" stroke="rgb(175,177,177)" stroke-width="1" opacity="0.9411764705882353" d="M 141.5 75 L 141.5 78 Q 138.5 76.5 141.5 75 Z " /><path fill="rgb(175,177,177)" stroke="rgb(175,177,177)" stroke-width="1" opacity="0.9411764705882353" d="M 153.5 75 L 154 77.5 L 152.5 82 L 152 77.5 L 153.5 75 Z " /><path fill="rgb(175,177,177)" stroke="rgb(175,177,177)" stroke-width="1" opacity="0.9411764705882353" d="M 142.5 79 L 143 141.5 L 133.5 157 L 132.5 155 L 135 153.5 L 142 141.5 L 142.5 79 Z " /><path fill="rgb(175,177,177)" stroke="rgb(175,177,177)" stroke-width="1" opacity="0.9411764705882353" d="M 63.5 81 L 66 81.5 L 59 87.5 L 63 83.5 Q 60.7 82.3 63.5 81 Z " /><path fill="rgb(175,177,177)" stroke="rgb(175,177,177)" stroke-width="1" opacity="0.9411764705882353" d="M 130.5 82 Q 133.3 81.4 132 87.5 L 130 86.5 L 131 83.5 L 129 83.5 L 130.5 82 Z " /><path fill="rgb(175,177,177)" stroke="rgb(175,177,177)" stroke-width="1" opacity="0.9411764705882353" d="M 78.5 84 L 79 104.5 L 75.5 107 L 75.5 106 L 78 104.5 L 78.5 84 Z " /><path fill="rgb(175,177,177)" stroke="rgb(175,177,177)" stroke-width="1" opacity="0.9411764705882353" d="M 152.5 84 L 154 86.5 L 153 86.5 L 152.5 84 Z " /><path fill="rgb(175,177,177)" stroke="rgb(175,177,177)" stroke-width="1" opacity="0.9411764705882353" d="M 57.5 89 L 55.5 92 L 57.5 89 Z " /><path fill="rgb(175,177,177)" stroke="rgb(175,177,177)" stroke-width="1" opacity="0.9411764705882353" d="M 66.5 92 L 69 92.5 L 68.5 98 L 66.5 94 L 64 95.5 L 64.5 97 L 62 96.5 L 66.5 92 Z " /><path fill="rgb(175,177,177)" stroke="rgb(175,177,177)" stroke-width="1" opacity="0.9411764705882353" d="M 131.5 94 L 132 96 L 130 95.5 L 131.5 94 Z " /><path fill="rgb(175,177,177)" stroke="rgb(175,177,177)" stroke-width="1" opacity="0.9411764705882353" d="M 23.5 96 L 24 113 L 22 112.5 L 23 111.5 L 23.5 96 Z " /><path fill="rgb(175,177,177)" stroke="rgb(175,177,177)" stroke-width="1" opacity="0.9411764705882353" d="M 50.5 96 L 49 98.5 L 48 100.5 L 48 136.5 L 46.5 138 L 47 136.5 L 47 100.5 L 46 99.5 L 48 99.5 L 47 97.5 Q 48.8 99.1 50.5 96 Z " /><path fill="rgb(175,177,177)" stroke="rgb(175,177,177)" stroke-width="1" opacity="0.9411764705882353" d="M 130 98 Q 134 96.6 132 103.5 L 130 102.5 L 131 100.5 L 130 98 Z " /><path fill="rgb(175,177,177)" stroke="rgb(175,177,177)" stroke-width="1" opacity="0.9411764705882353" d="M 130 105 L 132 105.5 L 132 112 Q 129 113.3 130 109.5 L 130 107.5 L 130 105 Z " /><path fill="rgb(175,177,177)" stroke="rgb(175,177,177)" stroke-width="1" opacity="0.9411764705882353" d="M 58.5 107 L 59 146.5 L 60 147.5 L 58.5 155 L 58.5 107 Z " /><path fill="rgb(175,177,177)" stroke="rgb(175,177,177)" stroke-width="1" opacity="0.9411764705882353" d="M 131.5 113 L 132 128.5 L 130.5 132 L 130 128.5 L 131 126.5 L 131 124.5 L 130 117.5 L 131 115.5 Q 128.8 114.3 131.5 113 Z " /><path fill="rgb(175,177,177)" stroke="rgb(175,177,177)" stroke-width="1" opacity="0.9411764705882353" d="M 23.5 114 L 24 116.5 L 23 116.5 L 23.5 114 Z " /><path fill="rgb(175,177,177)" stroke="rgb(175,177,177)" stroke-width="1" opacity="0.9411764705882353" d="M 78.5 117 L 113 117.5 L 78.5 118 L 78.5 117 Z " /><path fill="rgb(175,177,177)" stroke="rgb(175,177,177)" stroke-width="1" opacity="0.9411764705882353" d="M 114.5 117 L 116 121.5 L 115.5 124 Q 112 128 102.5 126 L 102.5 125 L 112.5 125 L 114 123.5 L 114.5 117 Z " /><path fill="rgb(175,177,177)" stroke="rgb(175,177,177)" stroke-width="1" opacity="0.9411764705882353" d="M 75.5 118 L 74 120.5 L 75 125.5 L 73 124.5 L 73 122.5 L 72 120.5 L 75.5 118 Z " /><path fill="rgb(175,177,177)" stroke="rgb(175,177,177)" stroke-width="1" opacity="0.9411764705882353" d="M 152.5 118 Q 155.1 120.5 154 126 Q 151.3 127.1 152 124.5 L 152 122.5 L 153 120.5 L 152.5 118 Z " /><path fill="rgb(175,177,177)" stroke="rgb(175,177,177)" stroke-width="1" opacity="0.9411764705882353" d="M 24.5 124 L 25 127.5 L 24 127.5 L 24.5 124 Z " /><path fill="rgb(175,177,177)" stroke="rgb(175,177,177)" stroke-width="1" opacity="0.9411764705882353" d="M 76 125 L 79 125.5 L 76.5 127 L 76 125 Z " /><path fill="rgb(175,177,177)" stroke="rgb(175,177,177)" stroke-width="1" opacity="0.9411764705882353" d="M 153.5 127 L 154 131.5 L 153 131.5 L 152 128.5 L 153.5 127 Z " /><path fill="rgb(175,177,177)" stroke="rgb(175,177,177)" stroke-width="1" opacity="0.9411764705882353" d="M 164.5 131 L 165 135.5 L 161.5 145 L 161 143.5 L 164.5 131 Z " /><path fill="rgb(175,177,177)" stroke="rgb(175,177,177)" stroke-width="1" opacity="0.9411764705882353" d="M 25.5 132 L 26 134.5 L 24 135.5 L 25.5 132 Z " /><path fill="rgb(175,177,177)" stroke="rgb(175,177,177)" stroke-width="1" opacity="0.9411764705882353" d="M 37.5 133 L 39 138.5 L 38 138.5 L 37.5 133 Z " /><path fill="rgb(175,177,177)" stroke="rgb(175,177,177)" stroke-width="1" opacity="0.9411764705882353" d="M 130.5 133 L 131 135.5 L 130 135.5 L 130.5 133 Z " /><path fill="rgb(175,177,177)" stroke="rgb(175,177,177)" stroke-width="1" opacity="0.9411764705882353" d="M 151.5 133 Q 154.1 132.2 153 135.5 L 152 135.5 L 151.5 133 Z " /><path fill="rgb(175,177,177)" stroke="rgb(175,177,177)" stroke-width="1" opacity="0.9411764705882353" d="M 74.5 134 L 76 134.5 L 74 138.5 L 76 141.5 L 74.5 142 L 73.5 139 L 72 138.5 L 74.5 134 Z " /><path fill="rgb(175,177,177)" stroke="rgb(175,177,177)" stroke-width="1" opacity="0.9411764705882353" d="M 102.5 134 L 105 138.5 L 104 138.5 L 102.5 134 Z " /><path fill="rgb(175,177,177)" stroke="rgb(175,177,177)" stroke-width="1" opacity="0.9411764705882353" d="M 151.5 137 L 152 139.5 L 150.5 142 L 150 140.5 L 151.5 137 Z " /><path fill="rgb(175,177,177)" stroke="rgb(175,177,177)" stroke-width="1" opacity="0.9411764705882353" d="M 48.5 138 L 49 140.5 L 48 140.5 L 48.5 138 Z " /><path fill="rgb(175,177,177)" stroke="rgb(175,177,177)" stroke-width="1" opacity="0.9411764705882353" d="M 39.5 140 L 41 143.5 L 40 143.5 L 39.5 140 Z " /><path fill="rgb(175,177,177)" stroke="rgb(175,177,177)" stroke-width="1" opacity="0.9411764705882353" d="M 78.5 142 L 100 142.5 L 78.5 143 L 78.5 142 Z " /><path fill="rgb(175,177,177)" stroke="rgb(175,177,177)" stroke-width="1" opacity="0.9411764705882353" d="M 149.5 143 L 149 144.5 L 146.5 149 L 147 147.5 L 149.5 143 Z " /><path fill="rgb(175,177,177)" stroke="rgb(175,177,177)" stroke-width="1" opacity="0.9411764705882353" d="M 41.5 145 L 45 150.5 L 43 149.5 L 41.5 145 Z " /><path fill="rgb(175,177,177)" stroke="rgb(175,177,177)" stroke-width="1" opacity="0.9411764705882353" d="M 160.5 146 L 161 147.5 L 159 148.5 L 160.5 146 Z " /><path fill="rgb(175,177,177)" stroke="rgb(175,177,177)" stroke-width="1" opacity="0.9411764705882353" d="M 51.5 147 L 57 153.5 L 52.5 150 L 51 149.5 L 51.5 147 Z " /><path fill="rgb(175,177,177)" stroke="rgb(175,177,177)" stroke-width="1" opacity="0.9411764705882353" d="M 145.5 150 L 145 151.5 L 143.5 154 L 144 152.5 L 145.5 150 Z " /><path fill="rgb(175,177,177)" stroke="rgb(175,177,177)" stroke-width="1" opacity="0.9411764705882353" d="M 158.5 150 L 158 151.5 L 157.5 153 L 157 151.5 L 158.5 150 Z " /><path fill="rgb(175,177,177)" stroke="rgb(175,177,177)" stroke-width="1" opacity="0.9411764705882353" d="M 45.5 152 L 56 164.5 L 50 159.5 L 45.5 152 Z " /><path fill="rgb(175,177,177)" stroke="rgb(175,177,177)" stroke-width="1" opacity="0.9411764705882353" d="M 33.5 154 L 36 157.5 L 34 156.5 L 33.5 154 Z " /><path fill="rgb(175,177,177)" stroke="rgb(175,177,177)" stroke-width="1" opacity="0.9411764705882353" d="M 156.5 154 L 156 155.5 L 150.5 163 L 153 159.5 L 156.5 154 Z " /><path fill="rgb(175,177,177)" stroke="rgb(175,177,177)" stroke-width="1" opacity="0.9411764705882353" d="M 141.5 156 L 140.5 158 L 141.5 156 Z " /><path fill="rgb(175,177,177)" stroke="rgb(175,177,177)" stroke-width="1" opacity="0.9411764705882353" d="M 36.5 159 Q 39.5 160.5 36.5 162 L 36.5 159 Z " /><path fill="rgb(175,177,177)" stroke="rgb(175,177,177)" stroke-width="1" opacity="0.9411764705882353" d="M 40.5 164 L 44.5 169 L 40.5 164 Z " /><path fill="rgb(175,177,177)" stroke="rgb(175,177,177)" stroke-width="1" opacity="0.9411764705882353" d="M 148.5 165 L 138.5 176 L 148.5 165 Z " /><path fill="rgb(175,177,177)" stroke="rgb(175,177,177)" stroke-width="1" opacity="0.9411764705882353" d="M 58.5 166 L 60.5 169 L 58.5 166 Z " /><path fill="rgb(175,177,177)" stroke="rgb(175,177,177)" stroke-width="1" opacity="0.9411764705882353" d="M 130.5 167 L 128.5 170 L 130.5 167 Z " /><path fill="rgb(175,177,177)" stroke="rgb(175,177,177)" stroke-width="1" opacity="0.9411764705882353" d="M 63.5 170 L 64.5 172 L 63.5 170 Z " /><path fill="rgb(175,177,177)" stroke="rgb(175,177,177)" stroke-width="1" opacity="0.9411764705882353" d="M 48.5 172 L 52.5 177 L 48.5 172 Z " /><path fill="rgb(175,177,177)" stroke="rgb(175,177,177)" stroke-width="1" opacity="0.9411764705882353" d="M 66.5 172 L 67.5 174 L 66.5 172 Z " /><path fill="rgb(175,177,177)" stroke="rgb(175,177,177)" stroke-width="1" opacity="0.9411764705882353" d="M 124.5 172 L 123.5 174 L 124.5 172 Z " /><path fill="rgb(175,177,177)" stroke="rgb(175,177,177)" stroke-width="1" opacity="0.9411764705882353" d="M 69.5 174 L 70.5 176 L 69.5 174 Z " /><path fill="rgb(175,177,177)" stroke="rgb(175,177,177)" stroke-width="1" opacity="0.9411764705882353" d="M 121.5 174 L 120.5 176 L 121.5 174 Z " /><path fill="rgb(175,177,177)" stroke="rgb(175,177,177)" stroke-width="1" opacity="0.9411764705882353" d="M 72.5 176 L 73.5 178 L 72.5 176 Z " /><path fill="rgb(175,177,177)" stroke="rgb(175,177,177)" stroke-width="1" opacity="0.9411764705882353" d="M 76.5 177 L 75.5 179 L 76.5 177 Z " /><path fill="rgb(175,177,177)" stroke="rgb(175,177,177)" stroke-width="1" opacity="0.9411764705882353" d="M 135.5 177 L 133.5 180 L 135.5 177 Z " /><path fill="rgb(175,177,177)" stroke="rgb(175,177,177)" stroke-width="1" opacity="0.9411764705882353" d="M 55.5 178 L 57.5 181 L 55.5 178 Z " /><path fill="rgb(175,177,177)" stroke="rgb(175,177,177)" stroke-width="1" opacity="0.9411764705882353" d="M 79.5 180 L 80.5 182 L 79.5 180 Z " /><path fill="rgb(175,177,177)" stroke="rgb(175,177,177)" stroke-width="1" opacity="0.9411764705882353" d="M 130.5 181 L 129.5 183 L 130.5 181 Z " /><path fill="rgb(175,177,177)" stroke="rgb(175,177,177)" stroke-width="1" opacity="0.9411764705882353" d="M 60.5 182 L 61.5 184 L 60.5 182 Z " /><path fill="rgb(175,177,177)" stroke="rgb(175,177,177)" stroke-width="1" opacity="0.9411764705882353" d="M 123.5 186 L 122.5 188 L 123.5 186 Z " /><path fill="rgb(175,177,177)" stroke="rgb(175,177,177)" stroke-width="1" opacity="0.9411764705882353" d="M 68.5 187 L 69.5 189 L 68.5 187 Z " /><path fill="rgb(175,177,177)" stroke="rgb(175,177,177)" stroke-width="1" opacity="0.9411764705882353" d="M 111.5 193 L 110.5 195 L 111.5 193 Z " /><path fill="rgb(175,177,177)" stroke="rgb(175,177,177)" stroke-width="1" opacity="0.9411764705882353" d="M 107.5 195 L 108.5 197 L 107.5 195 Z " /><path fill="rgb(175,177,177)" stroke="rgb(175,177,177)" stroke-width="1" opacity="0.9411764705882353" d="M 94.5 199 L 99 199.5 L 94.5 200 L 94.5 199 Z " /></svg>