<?xml version="1.0" encoding="UTF-8"?>
<svg version="1.1" xmlns="http://www.w3.org/2000/svg" width="225" height="225">
<path d="M0 0 C74.25 0 148.5 0 225 0 C225 74.25 225 148.5 225 225 C150.75 225 76.5 225 0 225 C0 150.75 0 76.5 0 0 Z " fill="#00F0A2" transform="translate(0,0)"/>
<path d="M0 0 C4.38410756 2.19205378 7.13092657 4.43115383 9 9 C9.83856888 16.46409328 7.38893377 21.11630663 3.8125 27.5625 C3.27512207 28.56120117 2.73774414 29.55990234 2.18408203 30.58886719 C-2.1900441 38.66904349 -6.72359019 46.66266117 -11.27539062 54.64379883 C-15.97244292 62.88971942 -20.41897671 71.2494332 -24.78955078 79.671875 C-27.29942859 84.49926402 -29.83533641 89.31313275 -32.38037109 94.12207031 C-34.36409017 97.87267421 -36.32549163 101.63058869 -38.23046875 105.421875 C-38.58286621 106.1118457 -38.93526367 106.80181641 -39.29833984 107.51269531 C-39.9516605 108.7929144 -40.59476516 110.0784246 -41.22509766 111.37011719 C-43.21180258 115.22556983 -45.03053281 117.22483455 -49 119 C-55.66191452 119.8459574 -55.66191452 119.8459574 -59.91015625 117.16015625 C-64.22485406 113.33587292 -66.18973483 108.10738487 -68.5 102.9375 C-69.45312002 100.8587752 -70.40753446 98.78064339 -71.36328125 96.703125 C-71.81525879 95.71248047 -72.26723633 94.72183594 -72.73291016 93.70117188 C-74.25852437 90.44887984 -75.95420236 87.33296176 -77.6875 84.1875 C-80.20016846 79.17677162 -81.40152082 74.54514758 -80 69 C-77.5625 65.9375 -77.5625 65.9375 -75 64 C-74.505 63.505 -74.505 63.505 -74 63 C-71.890625 62.76171875 -71.890625 62.76171875 -69.25 62.6875 C-68.38890625 62.65011719 -67.5278125 62.61273438 -66.640625 62.57421875 C-63.058537 63.15180394 -61.55874703 64.44965608 -59 67 C-57.19921875 70.015625 -57.19921875 70.015625 -55.6875 73.25 C-55.17574219 74.32765625 -54.66398437 75.4053125 -54.13671875 76.515625 C-53.76160156 77.33546875 -53.38648437 78.1553125 -53 79 C-49.75899286 75.19844131 -47.93494796 70.81330213 -45.875 66.3125 C-42.95310867 60.02893983 -39.92410455 53.84390153 -36.625 47.75 C-32.46752697 40.05531094 -28.68831961 32.20073342 -24.98095703 24.28027344 C-12.41909546 -2.40369589 -12.41909546 -2.40369589 0 0 Z " fill="#FBFEFD" transform="translate(165,51)"/>
<path d="M0 0 C0.84046875 -0.03738281 1.6809375 -0.07476562 2.546875 -0.11328125 C6.18626497 0.45997526 8.61369013 1.81057402 11.25 4.3125 C13.42651939 7.55588457 15.09873736 11.00705003 16.796875 14.51953125 C17.294151 15.51828781 17.791427 16.51704437 18.30377197 17.54606628 C19.349862 19.65467443 20.38826293 21.76711247 21.41943359 23.88305664 C22.99318419 27.1110199 24.59002224 30.32668615 26.19140625 33.54101562 C27.2071046 35.59567481 28.22147224 37.65099246 29.234375 39.70703125 C29.94530304 41.1433062 29.94530304 41.1433062 30.67059326 42.6085968 C33.02698778 47.45815962 34.98086247 52.06760409 36.25 57.3125 C35.53714844 57.38726562 34.82429688 57.46203125 34.08984375 57.5390625 C27.24240179 58.47908818 22.83111006 60.01108962 18.25 65.3125 C17.92 65.9725 17.59 66.6325 17.25 67.3125 C16.59 67.3125 15.93 67.3125 15.25 67.3125 C14.92 66.3225 14.59 65.3325 14.25 64.3125 C14.25079559 64.9358876 14.25159119 65.55927521 14.25241089 66.20155334 C14.25485425 72.7073796 14.21555947 79.21201672 14.15234375 85.7175293 C14.1342087 88.14325431 14.12661069 90.56908245 14.12988281 92.99487305 C14.13274684 96.48827516 14.09735576 99.97954938 14.0546875 103.47265625 C14.0683284 105.09180687 14.0683284 105.09180687 14.08224487 106.7436676 C13.96221212 113.00387281 13.20067391 116.5875861 8.72952271 121.09983826 C5.33091323 123.8854418 2.04317919 123.70088017 -2.203125 123.6640625 C-6.37161229 123.08865781 -7.94423148 121.39884537 -10.75 118.3125 C-12.50483504 115.39483292 -13.00466547 113.24291814 -13.03088379 109.85441589 C-13.04230408 108.96713303 -13.05372437 108.07985016 -13.06549072 107.16567993 C-13.06772644 106.19988007 -13.06996216 105.2340802 -13.07226562 104.23901367 C-13.08219543 103.21579514 -13.09212524 102.1925766 -13.10235596 101.13835144 C-13.13157283 97.75236321 -13.14519833 94.36656234 -13.15625 90.98046875 C-13.16775484 88.62640884 -13.17927029 86.27234899 -13.1907959 83.91828918 C-13.21180818 78.98124315 -13.22349861 74.04426219 -13.23046875 69.10717773 C-13.24143868 62.78514876 -13.28949629 56.46398121 -13.34641266 50.1422224 C-13.38368523 45.27884926 -13.3940776 40.41568325 -13.3971405 35.55217934 C-13.40318995 33.22177736 -13.41923516 30.89137887 -13.44551086 28.56111717 C-13.47967821 25.29813722 -13.47586316 22.03725689 -13.46289062 18.77416992 C-13.48132019 17.81444275 -13.49974976 16.85471558 -13.51873779 15.86590576 C-13.44536892 9.96558194 -12.36968097 6.83959056 -8.23274994 2.57361317 C-5.5298783 0.27475823 -3.47280353 0.09997465 0 0 Z " fill="#FCFEFE" transform="translate(63.75,50.6875)"/>
<path d="M0 0 C0.33 0 0.66 0 1 0 C1.0927379 10.97892655 1.16378438 21.9577597 1.20724869 32.93699837 C1.22811092 38.03528823 1.25640383 43.13330983 1.30175781 48.23144531 C1.34526396 53.15274563 1.36914737 58.07378815 1.37950897 62.99526596 C1.38689176 64.87154066 1.40130873 66.74780146 1.42292023 68.62396622 C1.45201777 71.25499049 1.45595338 73.88495363 1.45410156 76.51611328 C1.47567322 77.67597496 1.47567322 77.67597496 1.49768066 78.85926819 C1.45809107 84.06801879 0.26020758 86.97258688 -3 91 C-5.93510788 93.79927794 -7.90633704 94.41226807 -11.9375 94.375 C-16.08428772 94.22864279 -18.83108163 93.88083488 -22 91 C-24.78076246 86.3873731 -25.59757062 82.2333629 -25.85546875 76.9375 C-25.91533463 75.77324242 -25.91533463 75.77324242 -25.97640991 74.58546448 C-26.08129734 72.05659756 -26.14391487 69.53064881 -26.1875 67 C-26.20279755 66.13462616 -26.21809509 65.26925232 -26.2338562 64.37765503 C-26.35560777 46.32283341 -20.7332086 33.91269216 -10.99658203 19.07373047 C-8.26980384 14.87586577 -5.88732767 10.52101055 -3.5 6.125 C-2.34317965 4.07749662 -1.17238462 2.0386466 0 0 Z " fill="#FCFEFE" transform="translate(173,80)"/>
<path d="M0 0 C0.33 0 0.66 0 1 0 C1 28.05 1 56.1 1 85 C0.67 85 0.34 85 0 85 C-0.33 58.93 -0.66 32.86 -1 6 C-1.99 6.495 -1.99 6.495 -3 7 C-1.125 2.25 -1.125 2.25 0 0 Z " fill="#E0FEFA" transform="translate(173,80)"/>
<path d="M0 0 C0.66 0.33 1.32 0.66 2 1 C-0.57784846 3.64752004 -2.91648098 5.94432065 -6 8 C-4.55746343 4.63408134 -2.66735273 2.48952921 0 0 Z " fill="#15E8A4" transform="translate(87,110)"/>
</svg>
