<?xml version="1.0" standalone="no"?>
<!DOCTYPE svg PUBLIC "-//W3C//DTD SVG 20010904//EN"
 "http://www.w3.org/TR/2001/REC-SVG-20010904/DTD/svg10.dtd">
<svg version="1.0" xmlns="http://www.w3.org/2000/svg"
 width="1024.000000pt" height="1024.000000pt" viewBox="0 0 1024.000000 1024.000000"
 preserveAspectRatio="xMidYMid meet">

<g transform="translate(0.000000,1024.000000) scale(0.100000,-0.100000)"
fill="#000000" stroke="none">
<path d="M4725 8944 c-446 -48 -865 -168 -1272 -364 -397 -192 -736 -432
-1048 -745 -433 -432 -747 -944 -940 -1530 -126 -380 -185 -763 -185 -1190 0
-605 120 -1133 380 -1672 192 -397 432 -736 745 -1048 432 -433 944 -747 1530
-940 380 -126 763 -185 1190 -185 605 0 1133 120 1672 380 397 192 736 432
1048 745 433 432 747 944 940 1530 126 380 185 763 185 1190 0 605 -120 1133
-380 1672 -192 397 -432 736 -745 1048 -432 433 -944 747 -1530 940 -244 81
-532 141 -803 169 -189 20 -603 20 -787 0z m789 -1014 c227 -33 442 -161 580
-345 294 -390 210 -928 -191 -1214 -94 -67 -240 -141 -683 -346 -380 -176
-648 -312 -757 -385 -368 -246 -459 -617 -215 -882 70 -75 145 -125 254 -168
82 -32 138 -75 138 -106 0 -26 -51 -64 -109 -82 -70 -21 -362 -24 -456 -4
-435 94 -768 400 -872 802 -37 142 -42 330 -13 469 32 155 100 321 187 459 97
152 155 218 718 822 193 206 423 454 512 550 222 241 318 316 487 381 143 55
272 70 420 49z m613 -2370 c178 -50 365 -162 509 -305 103 -102 160 -182 214
-299 51 -109 70 -182 77 -302 13 -231 -58 -459 -205 -656 -26 -35 -125 -144
-222 -243 -96 -99 -267 -277 -380 -395 -353 -371 -668 -698 -725 -753 -85 -82
-202 -150 -325 -189 -63 -19 -96 -23 -210 -23 -158 0 -223 15 -349 76 -145 71
-279 220 -336 373 -70 189 -56 387 41 564 85 157 197 272 469 487 416 327 585
484 704 650 141 200 162 273 160 552 -1 109 2 212 6 228 4 17 21 57 38 89 47
89 116 137 242 170 42 11 222 -4 292 -24z"/>
</g>
</svg>
