<?xml version="1.0" standalone="no"?>
<!DOCTYPE svg PUBLIC "-//W3C//DTD SVG 20010904//EN"
 "http://www.w3.org/TR/2001/REC-SVG-20010904/DTD/svg10.dtd">
<svg version="1.0" xmlns="http://www.w3.org/2000/svg"
 width="509.000000pt" height="619.000000pt" viewBox="0 0 509.000000 619.000000"
 preserveAspectRatio="xMidYMid meet">

<g transform="translate(0.000000,619.000000) scale(0.100000,-0.100000)"
fill="#000000" stroke="none">
<path d="M2365 5809 c-474 -244 -940 -434 -1435 -584 -112 -34 -161 -54 -177
-72 l-23 -24 0 -572 c1 -843 11 -1018 75 -1268 64 -251 204 -526 372 -734 49
-60 49 -60 107 -63 57 -3 60 -2 88 32 16 19 44 40 62 47 l34 12 -65 76 c-244
285 -387 624 -423 1006 -5 62 -10 375 -10 716 l0 606 273 93 c445 150 740 272
1134 467 l213 105 222 -110 c370 -183 654 -302 1033 -431 132 -46 268 -92 303
-104 l62 -22 0 -616 c0 -358 -4 -660 -10 -720 -38 -375 -174 -695 -421 -996
-32 -39 -59 -74 -59 -77 0 -3 67 -6 149 -6 174 0 155 -10 248 132 162 246 258
507 310 843 12 81 16 237 20 841 l5 740 -23 27 c-19 20 -80 44 -294 112 -539
173 -978 356 -1403 584 -74 39 -139 70 -145 69 -7 0 -106 -50 -222 -109z"/>
<path d="M2515 5184 c-319 -47 -547 -246 -631 -551 -11 -41 -18 -120 -21 -275
l-6 -218 -35 0 c-78 0 -167 -69 -191 -149 -7 -27 -11 -193 -11 -539 0 -480 1
-504 20 -556 40 -106 135 -183 255 -206 43 -8 257 -10 735 -8 l675 3 56 26
c76 36 133 90 166 157 l28 57 0 530 0 530 -28 48 c-36 61 -92 99 -157 105
l-50 5 0 146 c-1 360 -50 513 -224 687 -66 66 -98 89 -176 127 -52 26 -121 53
-153 61 -62 16 -203 27 -252 20z m214 -273 c153 -47 275 -177 317 -336 9 -33
14 -113 14 -240 l0 -190 -467 2 -468 3 -3 175 c-3 192 8 267 52 353 53 104
162 197 274 233 78 24 202 25 281 0z m-86 -1162 c47 -13 102 -60 128 -110 37
-74 15 -189 -46 -237 l-28 -22 18 -175 c10 -95 15 -181 12 -189 -5 -13 -28
-16 -135 -16 -92 0 -132 4 -139 13 -7 8 -4 71 8 187 l18 174 -35 39 c-19 21
-39 49 -44 63 -15 38 -12 122 5 158 22 46 76 95 121 111 48 17 68 18 117 4z"/>
<path d="M1499 2411 c-19 -15 -24 -29 -24 -70 l0 -51 -620 0 c-341 0 -630 -3
-642 -6 -30 -8 -36 -33 -19 -82 101 -285 656 -600 1192 -676 116 -17 190 -42
270 -95 122 -78 169 -160 169 -292 0 -78 -3 -91 -38 -162 -78 -158 -262 -305
-477 -383 -36 -13 -71 -32 -77 -41 -9 -12 -13 -67 -13 -189 l0 -173 26 -20
c26 -20 38 -21 314 -21 275 0 288 1 313 21 15 11 59 35 99 54 151 69 317 104
533 112 299 11 547 -41 719 -151 l56 -36 288 0 c244 0 291 2 310 16 21 15 22
20 22 194 0 205 -1 208 -88 230 -115 29 -270 118 -371 214 -194 185 -244 413
-137 626 147 292 539 497 1049 549 50 5 97 15 112 25 l25 16 0 185 c0 172 -1
186 -20 205 -20 20 -33 20 -1484 20 -1424 0 -1464 -1 -1487 -19z"/>
</g>
</svg>
