<?xml version="1.0" encoding="UTF-8"?>
<svg version="1.1" xmlns="http://www.w3.org/2000/svg" width="1545" height="1333">
<path d="M0 0 C506.22933384 0 506.22933384 0 546.3125 4.3125 C548.45228961 4.53365628 550.5921014 4.75459796 552.73193359 4.9753418 C632.83378565 13.36913312 712.20687148 31.97786739 913.1796875 153.3984375 C915.69478868 155.71846158 918.24544913 157.98794528 920.8125 160.25 C929.79979275 168.32111242 938.60361019 176.88627626 946.40234375 186.12109375 C948.36001765 188.42339485 950.3993366 190.64371114 952.4375 192.875 C956.83781226 197.76341412 960.9669833 202.80585924 965 208 C965.4851709 208.62326172 965.9703418 209.24652344 966.47021484 209.88867188 C973.60432243 219.07071355 980.54700854 228.32308783 987 238 C987.4630957 238.68803711 987.92619141 239.37607422 988.40332031 240.08496094 C997.96131112 254.32618189 1006.62055556 269.03920024 1015 284 C1015.67289063 285.20052002 1015.67289063 285.20052002 1016.359375 286.42529297 C1054.0122383 354.16682827 1073.22803481 432.21548536 1090 610 C1090.01643555 611.21378326 1090.01643555 611.21378326 1090.03320312 612.4520874 C1091.18455604 702.47984288 1083.54686507 793.85567507 1050 907 C1049.78901672 907.65037231 1049.57803345 908.30074463 1049.36065674 908.9708252 C1029.13252427 971.31048479 999.00343678 1030.04448268 959 1082 C958.53883789 1082.60150879 958.07767578 1083.20301758 957.60253906 1083.82275391 C947.96605214 1096.36249753 937.69578012 1108.35197236 927 1120 C926.49774902 1120.54736816 925.99549805 1121.09473633 925.47802734 1121.65869141 C904.15497711 1144.8452264 904.15497711 1144.8452264 892.91015625 1154.37109375 C890.6219606 1156.32237716 888.4090094 1158.34817687 886.1875 1160.375 C880.93567506 1165.10243697 875.52595623 1169.59810258 870 1174 C869.360625 1174.51191895 868.72125 1175.02383789 868.0625 1175.55126953 C857.36104153 1184.09396831 846.36022735 1192.02562562 834.99121094 1199.65332031 C832.50705206 1201.33338656 830.0641964 1203.06796147 827.625 1204.8125 C821.91521782 1208.81323173 815.98538525 1212.42969867 810 1216 C809.15630859 1216.50450684 808.31261719 1217.00901367 807.44335938 1217.52880859 C746.85812116 1253.63718837 680.91075118 1278.26459316 612 1293 C611.32769348 1293.14459656 610.65538696 1293.28919312 609.96270752 1293.43817139 C577.11933244 1300.479839 543.92001082 1304.99445263 510.5 1308.25 C509.3358255 1308.36569839 509.3358255 1308.36569839 508.14813232 1308.48373413 C339.56805428 1324.99535992 169.38676602 1312 0 1312 C0 879.04 0 446.08 0 0 Z M348 287 C348 529.22 348 771.44 348 1021 C497.22003352 1023.34129046 497.22003352 1023.34129046 627 957 C627.53141602 956.52498047 628.06283203 956.04996094 628.61035156 955.56054688 C632.11342485 952.41518923 635.56871076 949.2234859 639 946 C639.65613281 945.38640625 640.31226563 944.7728125 640.98828125 944.140625 C646.13957059 939.16696633 650.57870898 933.61956905 655 928 C655.44472656 927.44231934 655.88945313 926.88463867 656.34765625 926.31005859 C707.18241214 862.25331014 722.89285149 775.69408971 728 696 C728.04343536 695.35488464 728.08687073 694.70976929 728.13162231 694.04510498 C729.23851647 677.17053164 729.20107075 660.2775696 729.1875 643.375 C729.18723312 642.63082195 729.18696625 641.88664391 729.18669128 641.11991501 C729.17674432 619.02566348 729.08850309 597.01758828 727 575 C726.93447937 574.2929895 726.86895874 573.585979 726.80145264 572.85754395 C724.83769873 551.7346677 722.08865566 530.82714771 718 510 C717.78118164 508.87867676 717.56236328 507.75735352 717.33691406 506.60205078 C707.15556621 455.46626812 687.73303764 404.27962859 652.13671875 365.359375 C650.28828021 363.31832038 648.51665115 361.23625718 646.75 359.125 C639.21064025 350.48103638 630.27680073 342.71448971 621 336 C620.04996094 335.30519531 619.09992188 334.61039062 618.12109375 333.89453125 C609.76203919 327.93549971 601.05613181 322.82401084 592 318 C591.34628418 317.65050293 590.69256836 317.30100586 590.01904297 316.94091797 C563.9713917 303.141826 535.82190977 295.71150486 506.875 290.875 C505.95364258 290.71628418 505.03228516 290.55756836 504.08300781 290.39404297 C453.54545375 282.31109411 395.8541138 287 348 287 Z " fill="#0F0B0B" transform="translate(0,0)"/>
<path d="M0 0 C15.67362471 14.34701697 28.4594583 29.43539536 39.1875 47.8125 C39.57147949 48.45993164 39.95545898 49.10736328 40.35107422 49.77441406 C65.34105554 92.37993445 70.1676186 144.90337817 57.87744141 192.23291016 C49.03983566 225.27542337 31.4303306 253.09058018 8.1875 277.8125 C7.60484375 278.44929688 7.0221875 279.08609375 6.421875 279.7421875 C-26.33601659 314.31996196 -76.93096215 331.83205611 -123.61010742 333.10009766 C-156.10954422 333.45742681 -187.43197985 325.96151329 -216.07568359 310.73388672 C-217.66336592 309.89161611 -219.26278817 309.07157173 -220.86328125 308.25390625 C-227.66554354 304.70364489 -233.72163541 300.4640014 -239.8125 295.8125 C-240.87082031 295.03390625 -241.92914062 294.2553125 -243.01953125 293.453125 C-281.5555028 264.67387236 -306.81198022 220.99157557 -314.8125 173.8125 C-314.92964355 173.14428223 -315.04678711 172.47606445 -315.16748047 171.78759766 C-323.11932631 124.46643482 -311.02228977 73.38529179 -283.63330078 34.12207031 C-280.8246795 30.24453909 -277.84655734 26.51492939 -274.8125 22.8125 C-274.34972656 22.24144531 -273.88695312 21.67039062 -273.41015625 21.08203125 C-247.42897586 -10.81356419 -212.44495357 -31.74307588 -172.8125 -42.1875 C-171.6575 -42.50332031 -170.5025 -42.81914063 -169.3125 -43.14453125 C-110.28959931 -58.1215923 -45.07900596 -39.77986355 0 0 Z " fill="#86BC24" transform="translate(1480.8125,1000.1875)"/>
</svg>
